<svg xmlns="http://www.w3.org/2000/svg" viewBox="0 0 6445.00 907.67" role="img" aria-label="AVANTI">
  <title>AVANTI</title>
  <g transform="translate(122.00 774.00) scale(1 -1)" fill="#FFFFFF">
    <path d="M200.0 287 209.0 305H468.0L475.0 287ZM694.0 12Q698.0 12 698.0 6.0Q698.0 0 694.0 0Q666.0 0 636.5 2.0Q607.0 4 580.0 4Q549.0 4 526.5 2.0Q504.0 0 477.0 0Q473.0 0 473.0 6.0Q473.0 12 477.0 12Q533.0 12 547.5 27.0Q562.0 42 543.0 84L317.0 570L336.0 587L143.0 123Q118.0 62 139.0 37.0Q160.0 12 228.0 12Q233.0 12 233.0 6.0Q233.0 0 228.0 0Q198.0 0 173.0 2.0Q148.0 4 110.0 4Q75.0 4 53.5 2.0Q32.0 0 2.0 0Q-2.0 0 -2.0 6.0Q-2.0 12 2.0 12Q29.0 12 49.0 22.0Q69.0 32 86.5 58.0Q104.0 84 124.0 132L333.0 635Q335.0 638 339.5 638.0Q344.0 638 345.0 635L577.0 137Q600.0 87 618.0 59.5Q636.0 32 654.0 22.0Q672.0 12 694.0 12ZM1868.0 625Q1871.0 625 1871.0 619.0Q1871.0 613 1868.0 613Q1837.0 613 1813.5 600.0Q1790.0 587 1772.0 544L1552.0 1Q1551.0 -3 1541.5 -3.0Q1532.0 -3 1530.0 1L1283.0 542Q1266.0 581 1247.0 597.0Q1228.0 613 1196.0 613Q1193.0 613 1193.0 619.0Q1193.0 625 1196.0 625Q1210.0 625 1224.5 624.0Q1239.0 623 1253.5 622.5Q1268.0 622 1281.0 622Q1305.0 622 1325.0 622.5Q1345.0 623 1361.5 624.0Q1378.0 625 1393.0 625Q1396.0 625 1396.0 619.0Q1396.0 613 1393.0 613Q1355.0 613 1339.0 600.5Q1323.0 588 1340.0 552L1564.0 57L1537.0 20L1751.0 550Q1765.0 585 1750.0 599.0Q1735.0 613 1679.0 613Q1676.0 613 1676.0 619.0Q1676.0 625 1679.0 625Q1702.0 625 1723.5 623.5Q1745.0 622 1779.0 622Q1808.0 622 1825.5 623.5Q1843.0 625 1868.0 625ZM2565.0 287 2574.0 305H2833.0L2840.0 287ZM3059.0 12Q3063.0 12 3063.0 6.0Q3063.0 0 3059.0 0Q3031.0 0 3001.5 2.0Q2972.0 4 2945.0 4Q2914.0 4 2891.5 2.0Q2869.0 0 2842.0 0Q2838.0 0 2838.0 6.0Q2838.0 12 2842.0 12Q2898.0 12 2912.5 27.0Q2927.0 42 2908.0 84L2682.0 570L2701.0 587L2508.0 123Q2483.0 62 2504.0 37.0Q2525.0 12 2593.0 12Q2598.0 12 2598.0 6.0Q2598.0 0 2593.0 0Q2563.0 0 2538.0 2.0Q2513.0 4 2475.0 4Q2440.0 4 2418.5 2.0Q2397.0 0 2367.0 0Q2363.0 0 2363.0 6.0Q2363.0 12 2367.0 12Q2394.0 12 2414.0 22.0Q2434.0 32 2451.5 58.0Q2469.0 84 2489.0 132L2698.0 635Q2700.0 638 2704.5 638.0Q2709.0 638 2710.0 635L2942.0 137Q2965.0 87 2983.0 59.5Q3001.0 32 3019.0 22.0Q3037.0 12 3059.0 12ZM3681.0 104V602L3703.0 600V104Q3703.0 53 3720.0 32.5Q3737.0 12 3779.0 12Q3782.0 12 3782.0 6.0Q3782.0 0 3779.0 0Q3760.0 0 3739.5 1.0Q3719.0 2 3694.0 2Q3670.0 2 3648.0 1.0Q3626.0 0 3606.0 0Q3604.0 0 3604.0 6.0Q3604.0 12 3606.0 12Q3650.0 12 3665.5 32.5Q3681.0 53 3681.0 104ZM4184.0 -11Q4184.0 -13 4179.0 -13.5Q4174.0 -14 4172.0 -13L3720.0 543Q3686.0 584 3659.5 598.5Q3633.0 613 3609.0 613Q3606.0 613 3606.0 619.0Q3606.0 625 3609.0 625Q3626.0 625 3644.0 624.0Q3662.0 623 3676.0 623Q3690.0 623 3702.5 624.0Q3715.0 625 3721.0 625Q3734.0 625 3739.0 613.5Q3744.0 602 3767.0 573L4176.0 65ZM4184.0 520V-11L4162.0 20V520Q4162.0 571 4146.0 592.0Q4130.0 613 4088.0 613Q4086.0 613 4086.0 619.0Q4086.0 625 4088.0 625Q4108.0 625 4128.5 623.5Q4149.0 622 4174.0 622Q4197.0 622 4220.0 623.5Q4243.0 625 4262.0 625Q4265.0 625 4265.0 619.0Q4265.0 613 4262.0 613Q4219.0 613 4201.5 592.0Q4184.0 571 4184.0 520ZM4968.0 608Q4905.0 608 4876.5 578.0Q4848.0 548 4837.0 471Q4837.0 469 4831.0 469.0Q4825.0 469 4825.0 471Q4827.0 483 4829.5 506.0Q4832.0 529 4834.0 555.5Q4836.0 582 4837.5 606.5Q4839.0 631 4839.0 647Q4839.0 652 4845.0 652.0Q4851.0 652 4851.0 647Q4851.0 637 4860.5 632.5Q4870.0 628 4882.5 626.5Q4895.0 625 4904.0 625Q4990.0 622 5105.0 622Q5176.0 622 5217.5 623.5Q5259.0 625 5298.0 625Q5331.0 625 5349.5 629.5Q5368.0 634 5373.0 650Q5374.0 654 5379.0 654.0Q5384.0 654 5384.0 650Q5383.0 635 5381.0 610.0Q5379.0 585 5378.0 557.5Q5377.0 530 5376.0 506.5Q5375.0 483 5375.0 471Q5375.0 469 5369.0 469.0Q5363.0 469 5363.0 471Q5363.0 548 5337.0 578.0Q5311.0 608 5242.0 608Q5195.0 608 5171.5 604.5Q5148.0 601 5140.5 587.5Q5133.0 574 5133.0 542V81Q5133.0 52 5140.0 37.0Q5147.0 22 5168.5 17.0Q5190.0 12 5234.0 12Q5236.0 12 5236.0 6.0Q5236.0 0 5234.0 0Q5208.0 0 5175.5 1.0Q5143.0 2 5105.0 2Q5069.0 2 5036.5 1.0Q5004.0 0 4977.0 0Q4975.0 0 4975.0 6.0Q4975.0 12 4977.0 12Q5020.0 12 5042.0 17.0Q5064.0 22 5071.5 37.0Q5079.0 52 5079.0 81V544Q5079.0 576 5071.0 589.5Q5063.0 603 5039.0 605.5Q5015.0 608 4968.0 608ZM6112.0 81Q6112.0 52 6118.0 37.0Q6124.0 22 6143.5 17.0Q6163.0 12 6201.0 12Q6203.0 12 6203.0 6.0Q6203.0 0 6201.0 0Q6177.0 0 6148.0 1.0Q6119.0 2 6084.0 2Q6051.0 2 6021.5 1.0Q5992.0 0 5968.0 0Q5965.0 0 5965.0 6.0Q5965.0 12 5968.0 12Q6006.0 12 6025.5 17.0Q6045.0 22 6051.5 37.0Q6058.0 52 6058.0 81V544Q6058.0 573 6051.5 587.5Q6045.0 602 6025.5 607.5Q6006.0 613 5968.0 613Q5965.0 613 5965.0 619.0Q5965.0 625 5968.0 625Q5992.0 625 6021.5 623.5Q6051.0 622 6084.0 622Q6119.0 622 6148.5 623.5Q6178.0 625 6201.0 625Q6203.0 625 6203.0 619.0Q6203.0 613 6201.0 613Q6163.0 613 6144.0 607.0Q6125.0 601 6118.5 586.0Q6112.0 571 6112.0 542Z"/>
  </g>
</svg>
