<svg xmlns="http://www.w3.org/2000/svg" viewBox="0 0 678.22 235.87" role="img" aria-label="Avanti — All the dream. None of the nightmare.">
  <title>Avanti</title>
  <g transform="translate(184.26 24.26) scale(1 -1)" fill="#0B2010" fill-opacity="0.7">
    <path d="M4.31484375 -0.109375Q3.2265625 -0.109375 2.40625 0.39921874999999996Q1.5859375 0.9078124999999999 1.1265625 1.8457031249999998Q0.6671874999999999 2.7835937499999996 0.6671874999999999 4.06875Q0.6671874999999999 5.3648437499999995 1.1265625 6.302734375Q1.5859375 7.240625 2.3953125 7.74921875Q3.2046875 8.2578125 4.24921875 8.2578125Q4.89453125 8.2578125 5.455078125 8.06640625Q6.015625 7.874999999999999 6.45859375 7.519531249999999Q6.9015625 7.164062499999999 7.194140624999999 6.674609374999999Q7.48671875 6.1851562499999995 7.59609375 5.594531249999999H6.524218749999999Q6.3984375 5.98828125 6.190625 6.3Q5.9828125 6.61171875 5.695703125 6.8359375Q5.40859375 7.0601562499999995 5.047656249999999 7.177734375Q4.68671875 7.2953125 4.254687499999999 7.2953125Q3.53828125 7.2953125 2.953125 6.926171875Q2.3679687499999997 6.55703125 2.0234375 5.837890625Q1.6789062499999998 5.1187499999999995 1.6789062499999998 4.06875Q1.6789062499999998 3.0296874999999996 2.0261718749999997 2.3132812499999997Q2.3734374999999996 1.5968749999999998 2.9695312499999997 1.2249999999999999Q3.565625 0.8531249999999999 4.31484375 0.8531249999999999Q5.00390625 0.8531249999999999 5.52890625 1.1457031249999998Q6.05390625 1.43828125 6.346484374999999 1.976953125Q6.6390625 2.515625 6.6390625 3.2484374999999996L6.9507812499999995 3.1882812499999997H4.528124999999999V4.09609375H7.656249999999999V3.2046875Q7.656249999999999 2.19296875 7.2242187499999995 1.44921875Q6.7921875 0.70546875 6.040234375 0.298046875Q5.28828125 -0.109375 4.31484375 -0.109375ZM12.476624999999999 0.0V8.1484375H15.265687499999999Q16.21725 8.1484375 16.832484375 7.823046874999999Q17.44771875 7.4976562499999995 17.745765624999997 6.928906249999999Q18.043812499999998 6.360156249999999 18.043812499999998 5.6328125Q18.043812499999998 4.90546875 17.745765624999997 4.34765625Q17.44771875 3.7898437499999997 16.83521875 3.4753906249999997Q16.22271875 3.1609374999999997 15.271156249999999 3.1609374999999997H13.056312499999999V4.08515625H15.2219375Q15.867249999999999 4.08515625 16.258265625 4.273828125Q16.649281249999998 4.4624999999999995 16.829749999999997 4.809765624999999Q17.01021875 5.157031249999999 17.01021875 5.6328125Q17.01021875 6.11953125 16.829749999999997 6.477734375Q16.649281249999998 6.8359375 16.255531249999997 7.035546875Q15.861781249999998 7.235156249999999 15.210999999999999 7.235156249999999H13.515687499999999V0.0ZM17.157874999999997 0.0 15.189124999999999 3.66953125H16.3594375L18.360999999999997 0.0ZM26.1235625 -0.109375Q25.079031249999996 -0.109375 24.261453124999996 0.39648437499999994Q23.443875 0.9023437499999999 22.9735625 1.8402343749999999Q22.503249999999998 2.7781249999999997 22.503249999999998 4.06875Q22.503249999999998 5.3648437499999995 22.9735625 6.302734375Q23.443875 7.240625 24.261453124999996 7.74921875Q25.079031249999996 8.2578125 26.1235625 8.2578125Q27.168093749999997 8.2578125 27.9829375 7.74921875Q28.797781249999996 7.240625 29.265359374999996 6.302734375Q29.7329375 5.3648437499999995 29.7329375 4.06875Q29.7329375 2.7781249999999997 29.265359374999996 1.8402343749999999Q28.797781249999996 0.9023437499999999 27.9829375 0.39648437499999994Q27.168093749999997 -0.109375 26.1235625 -0.109375ZM26.1235625 0.8531249999999999Q26.850906249999998 0.8531249999999999 27.438796874999998 1.222265625Q28.026687499999998 1.59140625 28.373953125 2.310546875Q28.72121875 3.0296874999999996 28.72121875 4.06875Q28.72121875 5.1187499999999995 28.373953125 5.837890625Q28.026687499999998 6.55703125 27.438796874999998 6.926171875Q26.850906249999998 7.2953125 26.1235625 7.2953125Q25.390749999999997 7.2953125 24.800124999999998 6.9234374999999995Q24.2095 6.551562499999999 23.862234375 5.832421875Q23.514968749999998 5.11328125 23.514968749999998 4.06875Q23.514968749999998 3.0296874999999996 23.862234375 2.3132812499999997Q24.2095 1.5968749999999998 24.800124999999998 1.2249999999999999Q25.390749999999997 0.8531249999999999 26.1235625 0.8531249999999999ZM37.70878125 -0.13124999999999998Q36.746281249999996 -0.13124999999999998 36.027140625 0.24609375Q35.308 0.6234375 34.914249999999996 1.2796874999999999Q34.5205 1.9359374999999999 34.5205 2.77265625V8.1484375H35.5595625V2.8546875Q35.5595625 2.26953125 35.819328125 1.812890625Q36.07909375 1.35625 36.56034375 1.09375Q37.04159375 0.8312499999999999 37.70878125 0.8312499999999999Q38.37596875 0.8312499999999999 38.854484375 1.09375Q39.333 1.35625 39.590031249999996 1.812890625Q39.8470625 2.26953125 39.8470625 2.8546875V8.1484375H40.886125V2.77265625Q40.886125 1.9359374999999999 40.492374999999996 1.2796874999999999Q40.098625 0.6234375 39.384953124999996 0.24609375Q38.67128125 -0.13124999999999998 37.70878125 -0.13124999999999998ZM45.990875 0.0V8.1484375H48.7799375Q49.731500000000004 8.1484375 50.346734375000004 7.801171875Q50.961968750000004 7.453906249999999 51.26001562500001 6.8687499999999995Q51.558062500000005 6.28359375 51.558062500000005 5.5562499999999995Q51.558062500000005 4.828906249999999 51.26001562500001 4.23828125Q50.961968750000004 3.64765625 50.34946875 3.2976562499999997Q49.73696875 2.9476562499999996 48.78540625 2.9476562499999996H46.8111875V3.8609375H48.7361875Q49.3815 3.8609375 49.77525 4.082421875Q50.169000000000004 4.30390625 50.346734375000004 4.689453125Q50.524468750000004 5.074999999999999 50.524468750000004 5.5562499999999995Q50.524468750000004 6.0375 50.346734375000004 6.4175781249999995Q50.169000000000004 6.797656249999999 49.772515625000004 7.016406249999999Q49.376031250000004 7.235156249999999 48.72525 7.235156249999999H47.0299375V0.0ZM62.117562500000005 7.2296875V8.1484375H68.275375V7.2296875H65.72146875V0.0H64.68240625V7.2296875ZM72.93168750000001 0.0V8.1484375H75.72075000000001Q76.6723125 8.1484375 77.287546875 7.823046874999999Q77.90278125 7.4976562499999995 78.20082812500002 6.928906249999999Q78.49887500000001 6.360156249999999 78.49887500000001 5.6328125Q78.49887500000001 4.90546875 78.20082812500002 4.34765625Q77.90278125 3.7898437499999997 77.29028125 3.4753906249999997Q76.67778125000001 3.1609374999999997 75.72621875000002 3.1609374999999997H73.51137500000002V4.08515625H75.677Q76.32231250000001 4.08515625 76.713328125 4.273828125Q77.10434375000001 4.4624999999999995 77.28481250000002 4.809765624999999Q77.46528125 5.157031249999999 77.46528125 5.6328125Q77.46528125 6.11953125 77.28481250000002 6.477734375Q77.10434375000001 6.8359375 76.71059375000002 7.035546875Q76.31684375 7.235156249999999 75.66606250000001 7.235156249999999H73.97075000000001V0.0ZM77.61293750000002 0.0 75.64418750000002 3.66953125H76.81450000000001L78.81606250000002 0.0ZM82.5755 0.0 85.53409375000001 8.1484375H86.73721875000001L89.73409375000001 0.0H88.64034375000001L86.91221875000001 4.834375Q86.75362500000001 5.2828124999999995 86.54307812500001 5.9527343749999995Q86.33253125 6.6226562499999995 86.03175 7.6617187499999995H86.22862500000001Q85.93331250000001 6.61171875 85.71729687500002 5.930859375Q85.50128125 5.25 85.35909375000001 4.834375L83.6801875 0.0ZM84.063 2.275V3.1828125H88.24659375V2.275ZM95.67009375 0.0 92.67321875 8.1484375H93.76696875L95.489625 3.3140625Q95.63728125 2.8984375 95.858765625 2.20390625Q96.08025 1.509375 96.3755625 0.49218749999999994H96.17321875Q96.46853125000001 1.53671875 96.68728125000001 2.217578125Q96.90603125000001 2.8984375 97.04821875 3.3140625L98.727125 8.1484375H99.83181250000001L96.86775 0.0ZM104.2365625 0.0V8.1484375H109.20218750000001V7.2296875H105.275625V4.5718749999999995H108.93421875V3.6531249999999997H105.275625V0.91875H109.25140625V0.0ZM114.10459375 0.0V8.1484375H115.14365625V0.91875H118.91709375V0.0ZM123.28903125000001 -1.9632812500000005 123.77028125000001 1.1375000000000002H124.89684375L124.04371875000001 -1.9632812500000005ZM136.22196875 0.0V8.1484375H137.26103125V4.6265624999999995H141.53759375V8.1484375H142.57665625V0.0H141.53759375V3.7078124999999997H137.26103125V0.0ZM146.98140625000002 0.0 149.94 8.1484375H151.143125L154.14000000000001 0.0H153.04625000000001L151.318125 4.834375Q151.15953125000001 5.2828124999999995 150.948984375 5.9527343749999995Q150.7384375 6.6226562499999995 150.43765625 7.6617187499999995H150.63453125Q150.33921875000001 6.61171875 150.12320312500003 5.930859375Q149.90718750000002 5.25 149.76500000000001 4.834375L148.08609375 0.0ZM148.46890625 2.275V3.1828125H152.6525V2.275ZM158.54475000000002 0.0V8.1484375H159.76975000000002L163.08381250000002 2.93671875Q163.21506250000002 2.734375 163.401 2.4171875Q163.58693750000003 2.0999999999999996 163.80295312500004 1.70078125Q164.01896875000003 1.3015625 164.22678125000002 0.84765625H164.07912500000003Q164.02990625 1.31796875 164.00803125000002 1.7472656249999998Q163.98615625000002 2.1765624999999997 163.98068750000002 2.5374999999999996Q163.97521875 2.8984375 163.97521875 3.15V8.1484375H165.01428125V0.0H163.77834375000003L160.82521875000003 4.637499999999999Q160.62287500000002 4.96015625 160.41779687500002 5.301953125Q160.21271875000002 5.64375 159.95021875000003 6.111328125Q159.68771875000002 6.578906249999999 159.2994375 7.26796875H159.49084375Q159.5181875 6.660937499999999 159.54006250000003 6.146875Q159.56193750000003 5.6328125 159.57560937500003 5.25Q159.58928125000003 4.8671875 159.58928125000003 4.6484375V0.0ZM172.66200000000003 0.0H170.69325000000003V0.91875H172.59637500000002Q173.59168750000003 0.91875 174.24520312500005 1.298828125Q174.89871875000003 1.6789062499999998 175.22137500000002 2.38984375Q175.54403125000005 3.10078125 175.54403125000005 4.090625Q175.54403125000005 5.06953125 175.22410937500004 5.772265624999999Q174.90418750000003 6.475 174.27254687500005 6.852343749999999Q173.64090625000003 7.2296875 172.69481250000004 7.2296875H170.64950000000005V8.1484375H172.76590625000003Q173.95809375000005 8.1484375 174.80301562500006 7.66171875Q175.64793750000004 7.175 176.09910937500004 6.264453124999999Q176.55028125000004 5.35390625 176.55028125000004 4.090625Q176.55028125000004 2.81640625 176.09637500000002 1.900390625Q175.64246875000003 0.9843749999999999 174.77293750000004 0.49218749999999994Q173.90340625000005 0.0 172.66200000000003 0.0ZM171.15809375000003 8.1484375V0.0H170.11903125000003V8.1484375ZM181.33784375000005 0.0V8.1484375H182.37690625000005V0.91875H186.15034375000005V0.0ZM190.80665625000006 0.0V8.1484375H195.77228125000005V7.2296875H191.84571875000006V4.5718749999999995H195.50431250000005V3.6531249999999997H191.84571875000006V0.91875H195.82150000000007V0.0ZM203.21765625000006 0.0H201.24890625000006V0.91875H203.15203125000005Q204.14734375000006 0.91875 204.80085937500007 1.298828125Q205.45437500000006 1.6789062499999998 205.77703125000005 2.38984375Q206.09968750000007 3.10078125 206.09968750000007 4.090625Q206.09968750000007 5.06953125 205.77976562500007 5.772265624999999Q205.45984375000006 6.475 204.82820312500007 6.852343749999999Q204.19656250000006 7.2296875 203.25046875000007 7.2296875H201.20515625000007V8.1484375H203.32156250000006Q204.51375000000007 8.1484375 205.35867187500008 7.66171875Q206.20359375000007 7.175 206.65476562500007 6.264453124999999Q207.10593750000007 5.35390625 207.10593750000007 4.090625Q207.10593750000007 2.81640625 206.65203125000005 1.900390625Q206.19812500000006 0.9843749999999999 205.32859375000007 0.49218749999999994Q204.45906250000007 0.0 203.21765625000006 0.0ZM201.71375000000006 8.1484375V0.0H200.67468750000006V8.1484375ZM218.80840625000008 3.1335937499999997Q218.50215625000007 3.1335937499999997 218.2861406250001 3.349609375Q218.07012500000008 3.565625 218.07012500000008 3.8718749999999997Q218.07012500000008 4.178125 218.2861406250001 4.3941406249999995Q218.50215625000007 4.610156249999999 218.80840625000008 4.610156249999999Q219.11465625000008 4.610156249999999 219.33067187500006 4.3941406249999995Q219.54668750000008 4.178125 219.54668750000008 3.8718749999999997Q219.54668750000008 3.565625 219.33067187500006 3.349609375Q219.11465625000008 3.1335937499999997 218.80840625000008 3.1335937499999997ZM230.82806250000007 0.0V8.1484375H235.79368750000006V7.2296875H231.86712500000007V4.5718749999999995H235.52571875000007V3.6531249999999997H231.86712500000007V0.91875H235.84290625000008V0.0ZM243.30468750000009 -0.1421875Q242.42421875000008 -0.1421875 241.77617187500007 0.14218749999999997Q241.12812500000007 0.42656249999999996 240.76171875000006 0.937890625Q240.39531250000007 1.44921875 240.34609375000008 2.1328125H241.41250000000008Q241.45625000000007 1.6734375 241.7242187500001 1.3753906249999999Q241.99218750000009 1.0773437499999998 242.41054687500008 0.932421875Q242.82890625000007 0.7875 243.30468750000009 0.7875Q243.85703125000006 0.7875 244.29726562500008 0.96796875Q244.73750000000007 1.1484375 244.99453125000008 1.4765625Q245.25156250000006 1.8046874999999998 245.25156250000006 2.2367187499999996Q245.25156250000006 2.63046875 245.03007812500007 2.8765625Q244.80859375000009 3.12265625 244.44218750000007 3.28125Q244.07578125000006 3.4398437499999996 243.63828125000006 3.56015625L242.65390625000006 3.8390625Q241.66953125000006 4.11796875 241.12265625000006 4.637499999999999Q240.57578125000006 5.157031249999999 240.57578125000006 5.9664062499999995Q240.57578125000006 6.65546875 240.94765625000008 7.172265625Q241.31953125000007 7.6890624999999995 241.95390625000007 7.973437499999999Q242.58828125000008 8.2578125 243.37578125000007 8.2578125Q244.17968750000009 8.2578125 244.79765625000007 7.973437499999999Q245.41562500000006 7.6890624999999995 245.77382812500008 7.199609375Q246.13203125000007 6.71015625 246.15390625000006 6.0921875H245.13671875000009Q245.06562500000007 6.688281249999999 244.5679687500001 7.013671875Q244.07031250000009 7.3390625 243.34296875000007 7.3390625Q242.81796875000006 7.3390625 242.42148437500006 7.166796874999999Q242.02500000000006 6.99453125 241.80625000000006 6.696484375Q241.58750000000006 6.3984375 241.58750000000006 6.015625Q241.58750000000006 5.5890625 241.85273437500007 5.329296875Q242.11796875000007 5.06953125 242.48164062500007 4.924609374999999Q242.84531250000006 4.7796875 243.14062500000009 4.69765625L243.95546875000008 4.473437499999999Q244.28359375000008 4.3859375 244.68007812500008 4.2328125Q245.07656250000008 4.0796874999999995 245.43750000000006 3.825390625Q245.79843750000006 3.5710937499999997 246.03085937500006 3.1800781249999996Q246.26328125000006 2.7890625 246.26328125000006 2.2203125Q246.26328125000006 1.5531249999999999 245.91601562500006 1.0171875Q245.56875000000008 0.48124999999999996 244.90703125000007 0.16953124999999997Q244.24531250000007 -0.1421875 243.30468750000009 -0.1421875ZM250.51490625000005 7.2296875V8.1484375H256.67271875000006V7.2296875H254.11881250000008V0.0H253.07975000000008V7.2296875ZM261.58059375000005 -0.07109375Q261.27434375000007 -0.07109375 261.05832812500006 0.14492187499999998Q260.84231250000005 0.36093749999999997 260.84231250000005 0.6671874999999999Q260.84231250000005 0.9734375 261.05832812500006 1.189453125Q261.27434375000007 1.4054687499999998 261.58059375000005 1.4054687499999998Q261.88684375 1.4054687499999998 262.10285937500004 1.189453125Q262.31887500000005 0.9734375 262.31887500000005 0.6671874999999999Q262.31887500000005 0.36093749999999997 262.10285937500004 0.14492187499999998Q261.88684375 -0.07109375 261.58059375000005 -0.07109375ZM273.4580625000001 0.0V0.7492187499999999L276.1650937500001 3.6859374999999996Q276.6190000000001 4.178125 276.9197812500001 4.55Q277.2205625000001 4.921875 277.3736875000001 5.258203125Q277.52681250000006 5.594531249999999 277.52681250000006 5.971875Q277.52681250000006 6.3984375 277.32446875000005 6.71015625Q277.1221250000001 7.021875 276.77759375000005 7.188671874999999Q276.43306250000006 7.355468749999999 275.99556250000006 7.355468749999999Q275.53071875000006 7.355468749999999 275.18892187500006 7.166796874999999Q274.84712500000006 6.9781249999999995 274.6611875000001 6.6363281249999995Q274.4752500000001 6.2945312499999995 274.4752500000001 5.83515625H273.47993750000006Q273.47993750000006 6.55703125 273.8135312500001 7.10390625Q274.1471250000001 7.65078125 274.7213437500001 7.954296875Q275.2955625000001 8.2578125 276.02290625000006 8.2578125Q276.75025000000005 8.2578125 277.31079687500005 7.954296875Q277.87134375000005 7.65078125 278.191265625 7.13671875Q278.51118750000006 6.6226562499999995 278.51118750000006 5.9828125Q278.51118750000006 5.539843749999999 278.3525937500001 5.121484375Q278.1940000000001 4.703125 277.7947812500001 4.17265625Q277.3955625000001 3.6421875 276.6736875000001 2.8765625L274.89087500000005 0.97890625V0.9132812499999999H278.64790625000006V0.0ZM286.11515625000004 -0.109375Q285.20734375000006 -0.109375 284.56750000000005 0.3828125Q283.92765625000004 0.875 283.5885937500001 1.807421875Q283.2495312500001 2.73984375 283.2495312500001 4.06875Q283.2495312500001 5.3921874999999995 283.5913281250001 6.327343749999999Q283.9331250000001 7.262499999999999 284.5729687500001 7.76015625Q285.21281250000004 8.2578125 286.11515625000004 8.2578125Q287.01750000000004 8.2578125 287.66007812500004 7.76015625Q288.30265625000004 7.262499999999999 288.64171875000005 6.327343749999999Q288.98078125000006 5.3921874999999995 288.98078125000006 4.06875Q288.98078125000006 2.7453125 288.64445312500004 1.81015625Q288.3081250000001 0.875 287.66828125000006 0.3828125Q287.02843750000005 -0.109375 286.11515625000004 -0.109375ZM286.11515625000004 0.7984374999999999Q286.71125000000006 0.7984374999999999 287.12687500000004 1.1867187499999998Q287.5425000000001 1.575 287.7612500000001 2.305078125Q287.9800000000001 3.03515625 287.9800000000001 4.06875Q287.9800000000001 5.1078125 287.7612500000001 5.8433593749999995Q287.5425000000001 6.578906249999999 287.12687500000004 6.9671875Q286.71125000000006 7.355468749999999 286.11515625000004 7.355468749999999Q285.5190625000001 7.355468749999999 285.10343750000004 6.9644531249999995Q284.68781250000006 6.5734375 284.46906250000006 5.840624999999999Q284.25031250000006 5.1078125 284.25031250000006 4.06875Q284.25031250000006 3.03515625 284.46906250000006 2.305078125Q284.68781250000006 1.575 285.10343750000004 1.1867187499999998Q285.5190625000001 0.7984374999999999 286.11515625000004 0.7984374999999999ZM293.62615625000007 0.0V0.7492187499999999L296.33318750000007 3.6859374999999996Q296.78709375000005 4.178125 297.08787500000005 4.55Q297.38865625000005 4.921875 297.54178125000004 5.258203125Q297.69490625000003 5.594531249999999 297.69490625000003 5.971875Q297.69490625000003 6.3984375 297.4925625000001 6.71015625Q297.29021875000007 7.021875 296.9456875000001 7.188671874999999Q296.60115625000003 7.355468749999999 296.16365625000003 7.355468749999999Q295.69881250000003 7.355468749999999 295.35701562500003 7.166796874999999Q295.01521875000003 6.9781249999999995 294.82928125 6.6363281249999995Q294.64334375000004 6.2945312499999995 294.64334375000004 5.83515625H293.64803125000003Q293.64803125000003 6.55703125 293.981625 7.10390625Q294.31521875000004 7.65078125 294.88943750000004 7.954296875Q295.46365625000004 8.2578125 296.19100000000003 8.2578125Q296.91834375 8.2578125 297.478890625 7.954296875Q298.0394375 7.65078125 298.35935937500005 7.13671875Q298.67928125000003 6.6226562499999995 298.67928125000003 5.9828125Q298.67928125000003 5.539843749999999 298.5206875 5.121484375Q298.36209375000004 4.703125 297.96287500000005 4.17265625Q297.56365625000007 3.6421875 296.84178125000005 2.8765625L295.05896875 0.97890625V0.9132812499999999H298.81600000000003V0.0ZM306.28325 -0.109375Q305.77465625 -0.109375 305.26606250000003 0.07656249999999998Q304.75746875000004 0.26249999999999996 304.339109375 0.7Q303.92075000000006 1.1375 303.6691875 1.88671875Q303.41762500000004 2.6359375 303.41762500000004 3.7624999999999997Q303.41762500000004 4.83984375 303.62270312500004 5.673828125Q303.82778125000004 6.5078125 304.21879687500007 7.084765624999999Q304.60981250000003 7.6617187499999995 305.16215625000007 7.959765624999999Q305.71450000000004 8.2578125 306.40903125000006 8.2578125Q307.09262500000006 8.2578125 307.63403125 7.984375Q308.17543750000004 7.710937499999999 308.51996875000003 7.2242187499999995Q308.8645 6.7375 308.9629375 6.09765625H307.94575000000003Q307.80903125000003 6.628125 307.42621875000003 6.98359375Q307.04340625000003 7.3390625 306.40903125000006 7.3390625Q305.78559375000003 7.3390625 305.33442187500003 6.97265625Q304.88325000000003 6.606249999999999 304.64262500000007 5.914453125Q304.40200000000004 5.22265625 304.40200000000004 4.2437499999999995H304.46762500000006Q304.68637500000006 4.582812499999999 304.99262500000003 4.826171875Q305.298875 5.06953125 305.67621875000003 5.198046874999999Q306.05356250000006 5.3265625 306.47465625 5.3265625Q307.17465625000006 5.3265625 307.75434375000003 4.9820312499999995Q308.33403125 4.637499999999999 308.68129687500004 4.027734375Q309.0285625 3.41796875 309.0285625 2.63046875Q309.0285625 1.8703124999999998 308.68950000000007 1.249609375Q308.35043750000006 0.62890625 307.73246875000007 0.259765625Q307.1145 -0.109375 306.28325 -0.109375ZM306.28325 0.8039062499999999Q306.7754375 0.8039062499999999 307.1691875 1.0499999999999998Q307.56293750000003 1.2960937499999998 307.79262500000004 1.7089843749999998Q308.02231250000006 2.1218749999999997 308.02231250000006 2.63046875Q308.02231250000006 3.128125 307.80082812500007 3.5355468749999996Q307.57934375 3.94296875 307.19106250000004 4.18359375Q306.80278125 4.42421875 306.31059375 4.42421875Q305.93871875 4.42421875 305.61879687500004 4.279296875Q305.298875 4.1343749999999995 305.05825000000004 3.880078125Q304.817625 3.6257812499999997 304.68364062500007 3.3003906249999995Q304.54965625000006 2.9749999999999996 304.54965625000006 2.6195312499999996Q304.54965625000006 2.13828125 304.77387500000003 1.725390625Q304.99809375 1.3125 305.39184375 1.058203125Q305.78559375000003 0.8039062499999999 306.28325 0.8039062499999999Z"/>
  </g>
  <g transform="translate(16.15 161.40) scale(1 -1)" fill="#0B2010" fill-opacity="1">
    <path d="M46.197500000000005 48.790000000000006 48.4925 51.85H92.52250000000001L92.9475 48.790000000000006ZM118.49000000000001 2.04Q119.17000000000002 2.04 118.91500000000002 1.02Q118.66000000000001 0.0 117.98 0.0Q113.22000000000001 0.0 108.29000000000002 0.34Q103.36000000000001 0.68 98.77000000000001 0.68Q93.50000000000001 0.68 89.59 0.34Q85.68 0.0 81.09 0.0Q80.41000000000001 0.0 80.66500000000002 1.02Q80.92000000000002 2.04 81.60000000000001 2.04Q91.12 2.04 94.2225 4.59Q97.325 7.140000000000001 95.88 14.280000000000001L78.11500000000001 96.9L82.06750000000001 99.79L29.5375 20.91Q22.695000000000004 10.540000000000001 25.202500000000004 6.290000000000001Q27.710000000000004 2.04 39.27 2.04Q40.12 2.04 39.864999999999995 1.02Q39.61 0.0 38.760000000000005 0.0Q33.660000000000004 0.0 29.495000000000005 0.34Q25.330000000000002 0.68 18.870000000000005 0.68Q12.920000000000002 0.68 9.180000000000001 0.34Q5.44 0.0 0.34 0.0Q-0.34 0.0 -0.08500000000000002 1.02Q0.16999999999999998 2.04 0.8500000000000001 2.04Q5.44 2.04 9.265 3.74Q13.09 5.44 17.17 9.860000000000001Q21.25 14.280000000000001 26.69 22.44L83.59750000000001 107.95Q84.065 108.46000000000001 84.83 108.46000000000001Q85.595 108.46000000000001 85.6375 107.95L103.91250000000001 23.290000000000003Q105.69750000000002 14.790000000000001 107.58875 10.115Q109.48 5.44 112.11500000000001 3.74Q114.75000000000001 2.04 118.49000000000001 2.04ZM249.60250000000002 106.25000000000001Q250.11250000000004 106.25000000000001 249.85750000000002 105.23000000000002Q249.60250000000002 104.21000000000001 249.09250000000003 104.21000000000001Q243.82250000000002 104.21000000000001 239.27500000000003 102.0Q234.72750000000002 99.79 229.84000000000003 92.48L169.3625 0.17Q169.02250000000004 -0.51 167.40750000000003 -0.51Q165.79250000000002 -0.51 165.6225 0.17L146.625 92.14Q145.3925 98.77000000000001 142.84250000000003 101.49000000000001Q140.29250000000002 104.21000000000001 134.85250000000002 104.21000000000001Q134.34250000000003 104.21000000000001 134.59750000000003 105.23000000000002Q134.85250000000002 106.25000000000001 135.3625 106.25000000000001Q137.7425 106.25000000000001 140.16500000000002 106.08000000000001Q142.58750000000003 105.91000000000001 145.03125000000003 105.82500000000002Q147.47500000000002 105.74000000000001 149.685 105.74000000000001Q153.76500000000001 105.74000000000001 157.18625000000003 105.82500000000002Q160.60750000000002 105.91000000000001 163.455 106.08000000000001Q166.3025 106.25000000000001 168.85250000000002 106.25000000000001Q169.3625 106.25000000000001 169.10750000000002 105.23000000000002Q168.85250000000002 104.21000000000001 168.34250000000003 104.21000000000001Q161.88250000000002 104.21000000000001 158.63125000000002 102.08500000000001Q155.38000000000002 99.96000000000001 156.74 93.84L173.78250000000003 9.690000000000001L167.62 3.4000000000000004L226.52500000000003 93.5Q230.3925 99.45 228.4375 101.83000000000001Q226.48250000000002 104.21000000000001 216.96250000000003 104.21000000000001Q216.45250000000001 104.21000000000001 216.70750000000004 105.23000000000002Q216.96250000000003 106.25000000000001 217.47250000000003 106.25000000000001Q221.38250000000002 106.25000000000001 224.97375000000002 105.995Q228.56500000000003 105.74000000000001 234.34500000000003 105.74000000000001Q239.275 105.74000000000001 242.31375000000003 105.995Q245.35250000000002 106.25000000000001 249.60250000000002 106.25000000000001ZM258.1875 48.790000000000006 260.4825 51.85H304.51250000000005L304.9375 48.790000000000006ZM330.48 2.04Q331.16 2.04 330.90500000000003 1.02Q330.65000000000003 0.0 329.97 0.0Q325.21000000000004 0.0 320.28000000000003 0.34Q315.35 0.68 310.76 0.68Q305.49 0.68 301.58000000000004 0.34Q297.67 0.0 293.08000000000004 0.0Q292.40000000000003 0.0 292.65500000000003 1.02Q292.91 2.04 293.59000000000003 2.04Q303.11 2.04 306.2125 4.59Q309.315 7.140000000000001 307.87 14.280000000000001L290.105 96.9L294.0575 99.79L241.5275 20.91Q234.685 10.540000000000001 237.1925 6.290000000000001Q239.70000000000002 2.04 251.26000000000002 2.04Q252.11 2.04 251.85500000000002 1.02Q251.60000000000002 0.0 250.75 0.0Q245.65 0.0 241.485 0.34Q237.32000000000002 0.68 230.86 0.68Q224.91000000000003 0.68 221.17000000000002 0.34Q217.43 0.0 212.33 0.0Q211.65 0.0 211.905 1.02Q212.16 2.04 212.84 2.04Q217.43 2.04 221.255 3.74Q225.08 5.44 229.16000000000003 9.860000000000001Q233.24 14.280000000000001 238.68 22.44L295.58750000000003 107.95Q296.055 108.46000000000001 296.82000000000005 108.46000000000001Q297.58500000000004 108.46000000000001 297.6275 107.95L315.90250000000003 23.290000000000003Q317.6875 14.790000000000001 319.57875 10.115Q321.47 5.44 324.105 3.74Q326.74 2.04 330.48 2.04ZM358.53000000000003 17.68 379.695 102.34 383.35 102.00000000000001 362.27 17.68Q360.1025 9.01 362.12125000000003 5.525Q364.14 2.04 371.28000000000003 2.04Q371.79 2.04 371.535 1.02Q371.28000000000003 0.0 370.77000000000004 0.0Q367.54 0.0 364.0975 0.17Q360.65500000000003 0.34 356.40500000000003 0.34Q352.325 0.34 348.5425 0.17Q344.76 0.0 341.36 0.0Q341.02000000000004 0.0 341.27500000000003 1.02Q341.53000000000003 2.04 341.87 2.04Q349.35 2.04 352.85625000000005 5.525Q356.3625 9.01 358.53000000000003 17.68ZM439.15250000000003 -1.87Q439.0675 -2.21 438.19625 -2.295Q437.32500000000005 -2.3800000000000003 437.02750000000003 -2.21L383.8175 92.31Q379.78000000000003 99.28 375.89125 101.745Q372.0025 104.21000000000001 367.9225 104.21000000000001Q367.4125 104.21000000000001 367.6675 105.23000000000002Q367.9225 106.25000000000001 368.4325 106.25000000000001Q371.3225 106.25000000000001 374.34000000000003 106.08000000000001Q377.3575 105.91000000000001 379.7375 105.91000000000001Q382.1175 105.91000000000001 384.28499999999997 106.08000000000001Q386.4525 106.25000000000001 387.4725 106.25000000000001Q389.6825 106.25000000000001 390.04375000000005 104.29500000000002Q390.40500000000003 102.34 393.0825 97.41000000000001L441.02250000000004 11.05ZM461.72 88.4 439.15250000000003 -1.87 436.73 3.4000000000000004 457.98 88.4Q460.14750000000004 97.07000000000001 458.32000000000005 100.64000000000001Q456.4925 104.21000000000001 449.3525 104.21000000000001Q449.01250000000005 104.21000000000001 449.26750000000004 105.23000000000002Q449.52250000000004 106.25000000000001 449.8625 106.25000000000001Q453.26250000000005 106.25000000000001 456.68375000000003 105.995Q460.105 105.74000000000001 464.355 105.74000000000001Q468.265 105.74000000000001 472.23875 105.995Q476.21250000000003 106.25000000000001 479.4425 106.25000000000001Q479.9525 106.25000000000001 479.6975 105.23000000000002Q479.4425 104.21000000000001 478.9325 104.21000000000001Q471.62250000000006 104.21000000000001 467.75500000000005 100.64000000000001Q463.88750000000005 97.07000000000001 461.72 88.4ZM517.1400000000001 103.36000000000001Q506.43000000000006 103.36000000000001 500.31000000000006 98.26000000000002Q494.19000000000005 93.16000000000001 489.04750000000007 80.07000000000001Q488.96250000000003 79.73 487.94250000000005 79.73Q486.92250000000007 79.73 487.00750000000005 80.07000000000001Q487.8575000000001 82.11 489.26000000000005 86.02000000000001Q490.6625 89.93 492.12875 94.435Q493.595 98.94000000000001 494.89125 103.10500000000002Q496.18750000000006 107.27000000000001 496.86750000000006 109.99000000000001Q497.08000000000004 110.84 498.1 110.84Q499.12000000000006 110.84 498.9075 109.99000000000001Q498.4825000000001 108.29 499.90625000000006 107.525Q501.33000000000004 106.76 503.39125 106.50500000000001Q505.45250000000004 106.25000000000001 506.9825000000001 106.25000000000001Q521.475 105.74000000000001 541.0250000000001 105.74000000000001Q553.095 105.74000000000001 560.2137500000001 105.995Q567.3325000000001 106.25000000000001 573.9625000000001 106.25000000000001Q579.5725 106.25000000000001 582.90875 107.01500000000001Q586.2450000000001 107.78 587.7750000000001 110.50000000000001Q588.115 111.18 588.965 111.18Q589.815 111.18 589.6450000000001 110.50000000000001Q588.8375000000001 107.95 587.4350000000001 103.7Q586.0325 99.45 584.69375 94.775Q583.355 90.10000000000001 582.18625 86.105Q581.0175 82.11 580.5075 80.07000000000001Q580.4225 79.73 579.4025 79.73Q578.3825 79.73 578.4675000000001 80.07000000000001Q581.74 93.16000000000001 578.595 98.26000000000002Q575.45 103.36000000000001 563.72 103.36000000000001Q555.73 103.36000000000001 551.5862500000001 102.76500000000001Q547.4425000000001 102.17 545.5937500000001 99.875Q543.7450000000001 97.58000000000001 542.385 92.14L522.7925 13.770000000000001Q521.5600000000001 8.84 522.1125000000001 6.29Q522.6650000000001 3.74 526.1075000000001 2.89Q529.5500000000001 2.04 537.0300000000001 2.04Q537.3700000000001 2.04 537.115 1.02Q536.86 0.0 536.5200000000001 0.0Q532.1 0.0 526.6175000000001 0.17Q521.135 0.34 514.6750000000001 0.34Q508.55500000000006 0.34 502.98750000000007 0.17Q497.4200000000001 0.0 492.83000000000004 0.0Q492.49000000000007 0.0 492.74500000000006 1.02Q493.00000000000006 2.04 493.34000000000003 2.04Q500.65000000000003 2.04 504.6025000000001 2.89Q508.55500000000006 3.74 510.4675000000001 6.29Q512.3800000000001 8.84 513.6125000000001 13.770000000000001L533.2900000000001 92.48Q534.6500000000001 97.92 533.8637500000001 100.215Q533.0775000000001 102.51 529.1037500000001 102.935Q525.1300000000001 103.36000000000001 517.1400000000001 103.36000000000001ZM607.6225000000001 13.770000000000001Q606.3900000000001 8.84 606.7725 6.29Q607.1550000000001 3.74 610.2575000000002 2.89Q613.3600000000001 2.04 619.82 2.04Q620.1600000000001 2.04 619.9050000000001 1.02Q619.6500000000001 0.0 619.3100000000001 0.0Q615.2300000000001 0.0 610.3425000000001 0.17Q605.455 0.34 599.5050000000001 0.34Q593.8950000000001 0.34 588.8375000000001 0.17Q583.7800000000001 0.0 579.7 0.0Q579.19 0.0 579.445 1.02Q579.7 2.04 580.21 2.04Q586.6700000000001 2.04 590.1975 2.89Q593.725 3.74 595.4675 6.29Q597.21 8.84 598.4425000000001 13.770000000000001L618.1200000000001 92.48Q619.3525000000001 97.41000000000001 618.8637500000001 99.875Q618.3750000000001 102.34 615.29375 103.275Q612.2125000000001 104.21000000000001 605.7525 104.21000000000001Q605.2425000000001 104.21000000000001 605.4975000000001 105.23000000000002Q605.7525 106.25000000000001 606.2625 106.25000000000001Q610.3425000000001 106.25000000000001 615.29375 105.995Q620.2450000000001 105.74000000000001 625.8550000000001 105.74000000000001Q631.8050000000001 105.74000000000001 636.8837500000001 105.995Q641.9625000000001 106.25000000000001 645.8725000000001 106.25000000000001Q646.2125000000001 106.25000000000001 645.9575000000001 105.23000000000002Q645.7025000000001 104.21000000000001 645.3625000000001 104.21000000000001Q638.9025000000001 104.21000000000001 635.4175000000001 103.19Q631.9325000000001 102.17 630.19 99.62Q628.4475000000001 97.07000000000001 627.215 92.14Z"/>
  </g>
  <g transform="translate(161.78 213.15) scale(1 -1)" fill="#0B2010" fill-opacity="0.85">
    <path d="M6.522 6.888 6.846 7.32H13.062000000000001L13.122 6.888ZM16.727999999999998 0.28800000000000003Q16.823999999999998 0.28800000000000003 16.787999999999997 0.14400000000000002Q16.752 0.0 16.656 0.0Q15.984 0.0 15.288 0.048Q14.591999999999999 0.096 13.943999999999999 0.096Q13.2 0.096 12.648 0.048Q12.096 0.0 11.448 0.0Q11.352 0.0 11.388 0.14400000000000002Q11.424 0.28800000000000003 11.52 0.28800000000000003Q12.863999999999999 0.28800000000000003 13.302 0.648Q13.74 1.008 13.536 2.016L11.028 13.68L11.586 14.088000000000001L4.17 2.952Q3.2039999999999997 1.488 3.558 0.888Q3.912 0.28800000000000003 5.5440000000000005 0.28800000000000003Q5.664000000000001 0.28800000000000003 5.628 0.14400000000000002Q5.5920000000000005 0.0 5.472 0.0Q4.752 0.0 4.164 0.048Q3.576 0.096 2.664 0.096Q1.824 0.096 1.296 0.048Q0.768 0.0 0.048 0.0Q-0.048 0.0 -0.011999999999999997 0.14400000000000002Q0.024000000000000007 0.28800000000000003 0.12000000000000001 0.28800000000000003Q0.768 0.28800000000000003 1.308 0.528Q1.848 0.768 2.424 1.392Q3.0 2.016 3.768 3.168L11.802 15.24Q11.868000000000002 15.312000000000001 11.976 15.312000000000001Q12.084 15.312000000000001 12.09 15.24L14.670000000000002 3.2880000000000003Q14.922 2.088 15.189 1.428Q15.456000000000001 0.768 15.828 0.528Q16.2 0.28800000000000003 16.727999999999998 0.28800000000000003ZM17.735999999999997 0.0Q17.663999999999998 0.0 17.699999999999996 0.14400000000000002Q17.735999999999997 0.28800000000000003 17.808 0.28800000000000003Q18.791999999999998 0.28800000000000003 19.158 0.6000000000000001Q19.524 0.912 19.782 1.944L22.896 14.4Q23.112 15.264000000000001 23.043 15.66Q22.974 16.056 22.541999999999998 16.056Q22.158 16.056 21.299999999999997 15.696Q21.192 15.648 21.168 15.792Q21.144 15.936 21.246 15.96L24.552 17.376Q24.606 17.400000000000002 24.677999999999997 17.400000000000002Q24.726 17.400000000000002 24.774 17.352000000000004Q24.822 17.304000000000002 24.804 17.232L20.982 1.944Q20.73 0.936 20.924999999999997 0.6120000000000001Q21.119999999999997 0.28800000000000003 22.128 0.28800000000000003Q22.2 0.28800000000000003 22.164 0.14400000000000002Q22.128 0.0 22.055999999999997 0.0Q21.648 0.0 21.09 0.024Q20.532 0.048 19.907999999999998 0.048Q19.308 0.048 18.726 0.024Q18.144 0.0 17.735999999999997 0.0ZM23.880000000000003 0.0Q23.808 0.0 23.844 0.14400000000000002Q23.880000000000003 0.28800000000000003 23.952 0.28800000000000003Q24.936 0.28800000000000003 25.302 0.6000000000000001Q25.668 0.912 25.926000000000002 1.944L29.04 14.4Q29.256 15.264000000000001 29.187 15.66Q29.118000000000002 16.056 28.686 16.056Q28.302 16.056 27.444000000000003 15.696Q27.336 15.648 27.311999999999998 15.792Q27.288 15.936 27.39 15.96L30.696 17.376Q30.75 17.400000000000002 30.822000000000003 17.400000000000002Q30.87 17.400000000000002 30.918 17.352000000000004Q30.966 17.304000000000002 30.948 17.232L27.126 1.944Q26.874000000000002 0.936 27.069000000000003 0.6120000000000001Q27.264000000000003 0.28800000000000003 28.272000000000002 0.28800000000000003Q28.344 0.28800000000000003 28.308 0.14400000000000002Q28.272000000000002 0.0 28.200000000000003 0.0Q27.792 0.0 27.234 0.024Q26.676000000000002 0.048 26.052 0.048Q25.452 0.048 24.87 0.024Q24.288 0.0 23.880000000000003 0.0ZM39.12 -0.28800000000000003Q38.544 -0.28800000000000003 38.07299999999999 -0.10800000000000001Q37.602 0.07200000000000001 37.394999999999996 0.492Q37.188 0.912 37.368 1.6320000000000001L38.796 7.344Q38.946 7.944 38.943 8.22Q38.94 8.496 38.697 8.58Q38.454 8.664 37.878 8.664Q37.806 8.664 37.842 8.808Q37.878 8.952 37.949999999999996 8.952Q38.861999999999995 8.952 39.55199999999999 9.456Q40.242 9.96 40.434 10.728Q40.452 10.8 40.632 10.8Q40.812 10.8 40.794 10.728L38.724 2.448Q38.472 1.44 38.841 0.948Q39.21 0.456 40.17 0.456Q40.818 0.456 41.361 0.66Q41.903999999999996 0.864 42.275999999999996 1.104Q42.384 1.1520000000000001 42.429 1.044Q42.474 0.936 42.36 0.864Q41.316 0.24 40.578 -0.02400000000000002Q39.839999999999996 -0.28800000000000003 39.12 -0.28800000000000003ZM43.452 8.112Q42.576 8.352 41.739000000000004 8.411999999999999Q40.902 8.472 39.942 8.472L40.068 8.976Q41.004 8.976 41.897999999999996 9.048000000000002Q42.792 9.120000000000001 43.8 9.216000000000001Q43.872 9.216000000000001 43.881 9.06Q43.89 8.904 43.83 8.664Q43.788 8.496 43.665 8.292000000000002Q43.542 8.088000000000001 43.452 8.112ZM43.440000000000005 0.0Q43.368 0.0 43.404 0.14400000000000002Q43.440000000000005 0.28800000000000003 43.512 0.28800000000000003Q44.496 0.28800000000000003 44.862 0.6000000000000001Q45.228 0.912 45.486000000000004 1.944L48.6 14.4Q48.816 15.264000000000001 48.747 15.66Q48.678000000000004 16.056 48.246 16.056Q47.862 16.056 47.004000000000005 15.696Q46.896 15.648 46.869 15.780000000000001Q46.842 15.912 46.95 15.96L50.262 17.400000000000002Q50.286 17.400000000000002 50.286 17.400000000000002Q50.286 17.400000000000002 50.31 17.400000000000002Q50.382000000000005 17.400000000000002 50.418000000000006 17.352000000000004Q50.454 17.304000000000002 50.436 17.232L46.614000000000004 1.944Q46.356 0.912 46.566 0.6000000000000001Q46.776 0.28800000000000003 47.784 0.28800000000000003Q47.832 0.28800000000000003 47.79600000000001 0.14400000000000002Q47.760000000000005 0.0 47.712 0.0Q47.28 0.0 46.746 0.024Q46.212 0.048 45.588 0.048Q44.988 0.048 44.418 0.024Q43.848 0.0 43.440000000000005 0.0ZM49.896 0.0Q49.824 0.0 49.86 0.14400000000000002Q49.896 0.28800000000000003 49.968 0.28800000000000003Q50.952 0.28800000000000003 51.318 0.6000000000000001Q51.684 0.912 51.942 1.944L52.92 5.856Q53.634 8.712 51.378 8.712Q50.442 8.712 49.341 8.1Q48.24 7.488 47.286 6.456L47.262 6.744Q48.762 8.232 49.953 8.867999999999999Q51.144000000000005 9.504 52.224000000000004 9.504Q53.52 9.504 54.063 8.796Q54.606 8.088000000000001 54.234 6.6000000000000005L53.07 1.944Q52.812 0.912 53.022 0.6000000000000001Q53.232 0.28800000000000003 54.24 0.28800000000000003Q54.288 0.28800000000000003 54.251999999999995 0.14400000000000002Q54.216 0.0 54.168 0.0Q53.736000000000004 0.0 53.202000000000005 0.024Q52.668000000000006 0.048 52.044000000000004 0.048Q51.444 0.048 50.874 0.024Q50.304 0.0 49.896 0.0ZM59.784 -0.28800000000000003Q58.367999999999995 -0.28800000000000003 57.584999999999994 0.372Q56.802 1.032 56.586 2.088Q56.37 3.144 56.664 4.32Q57.03 5.784 57.992999999999995 6.948Q58.955999999999996 8.112 60.266999999999996 8.796Q61.577999999999996 9.48 62.922 9.48Q64.28999999999999 9.48 64.776 8.736Q65.262 7.992 64.95 6.744Q64.872 6.432 64.776 6.288Q64.67999999999999 6.144 64.512 6.144H63.384Q63.876 7.632000000000001 63.459 8.316Q63.042 9.0 62.034 9.0Q60.69 9.0 59.691 7.98Q58.692 6.96 58.248 5.184Q57.912 3.84 58.077 2.772Q58.242 1.704 58.929 1.092Q59.616 0.48 60.815999999999995 0.48Q61.656 0.48 62.259 0.732Q62.861999999999995 0.984 63.443999999999996 1.296Q63.504 1.344 63.56099999999999 1.2360000000000002Q63.617999999999995 1.1280000000000001 63.552 1.056Q62.532 0.336 61.602 0.023999999999999994Q60.672 -0.28800000000000003 59.784 -0.28800000000000003ZM58.17 6.12 58.217999999999996 6.408 63.714 6.5040000000000004 63.623999999999995 6.144ZM74.586 -0.312Q73.602 -0.312 72.882 0.264Q72.16199999999999 0.84 71.901 1.8599999999999999Q71.64 2.88 71.982 4.248Q72.318 5.5920000000000005 73.083 6.588000000000001Q73.848 7.5840000000000005 74.82900000000001 8.244Q75.81 8.904 76.854 9.24Q77.898 9.576 78.786 9.576Q79.626 9.576 80.283 9.276Q80.94 8.976 81.426 8.424L80.826 6.888Q80.454 7.8 79.839 8.46Q79.22399999999999 9.120000000000001 77.952 9.120000000000001Q76.416 9.120000000000001 75.195 8.028Q73.97399999999999 6.936 73.476 4.944Q73.14 3.6 73.32 2.592Q73.5 1.584 74.106 1.032Q74.712 0.48 75.624 0.48Q76.728 0.48 77.74799999999999 1.104Q78.768 1.728 79.752 2.592L79.902 2.424Q79.25399999999999 1.848 78.423 1.2120000000000002Q77.592 0.5760000000000001 76.62899999999999 0.13200000000000003Q75.666 -0.312 74.586 -0.312ZM84.228 17.232 80.568 2.592Q80.352 1.728 80.457 1.332Q80.562 0.936 81.066 0.936Q81.306 0.936 81.669 0.996Q82.032 1.056 82.476 1.296Q82.608 1.344 82.63499999999999 1.2120000000000002Q82.66199999999999 1.08 82.53 1.032L79.764 -0.14400000000000002Q79.65599999999999 -0.192 79.56 -0.192Q79.24799999999999 -0.192 79.131 0.348Q79.014 0.888 79.27799999999999 1.944L82.386 14.376Q82.602 15.24 82.533 15.636Q82.464 16.032 81.984 16.032Q81.768 16.032 81.47999999999999 15.936Q81.192 15.84 80.74199999999999 15.672Q80.634 15.624 80.61 15.768Q80.586 15.912 80.68799999999999 15.936L83.976 17.376Q84.03 17.400000000000002 84.102 17.400000000000002Q84.15 17.400000000000002 84.19800000000001 17.352000000000004Q84.246 17.304000000000002 84.228 17.232ZM87.306 6.5040000000000004 87.27 6.744Q88.434 7.848 89.145 8.436Q89.856 9.024000000000001 90.321 9.252Q90.786 9.48 91.16999999999999 9.48Q91.67399999999999 9.48 92.088 9.216000000000001Q92.502 8.952 92.40599999999999 8.568Q92.34599999999999 8.328 92.118 8.136Q91.89 7.944 91.554 7.944Q91.26599999999999 7.944 91.10399999999998 8.112Q90.942 8.28 90.74099999999999 8.436Q90.53999999999999 8.592 90.13199999999999 8.592Q89.916 8.592 89.631 8.46Q89.34599999999999 8.328 88.815 7.884Q88.28399999999999 7.44 87.306 6.5040000000000004ZM83.448 0.0Q83.37599999999999 0.0 83.41199999999999 0.14400000000000002Q83.448 0.28800000000000003 83.52 0.28800000000000003Q84.50399999999999 0.28800000000000003 84.86999999999999 0.6000000000000001Q85.23599999999999 0.912 85.494 1.944L86.69399999999999 6.744Q86.898 7.5600000000000005 86.79899999999999 7.932Q86.69999999999999 8.304 86.22 8.304Q85.97999999999999 8.304 85.61999999999999 8.208Q85.25999999999999 8.112 84.786 7.944Q84.684 7.92 84.654 8.04Q84.624 8.16 84.732 8.208L87.708 9.456Q87.762 9.48 87.83399999999999 9.48Q88.002 9.48 88.131 8.988Q88.25999999999999 8.496 88.026 7.5600000000000005L86.622 1.944Q86.448 1.248 86.526 0.888Q86.604 0.528 87.09 0.40800000000000003Q87.576 0.28800000000000003 88.60799999999999 0.28800000000000003Q88.67999999999999 0.28800000000000003 88.64399999999999 0.14400000000000002Q88.60799999999999 0.0 88.536 0.0Q87.96 0.0 87.198 0.024Q86.43599999999999 0.048 85.59599999999999 0.048Q84.996 0.048 84.42599999999999 0.024Q83.856 0.0 83.448 0.0ZM95.78399999999999 -0.28800000000000003Q94.368 -0.28800000000000003 93.585 0.372Q92.80199999999999 1.032 92.586 2.088Q92.37 3.144 92.664 4.32Q93.03 5.784 93.993 6.948Q94.956 8.112 96.267 8.796Q97.578 9.48 98.922 9.48Q100.28999999999999 9.48 100.776 8.736Q101.262 7.992 100.95 6.744Q100.872 6.432 100.776 6.288Q100.67999999999999 6.144 100.512 6.144H99.384Q99.876 7.632000000000001 99.459 8.316Q99.042 9.0 98.03399999999999 9.0Q96.69 9.0 95.691 7.98Q94.692 6.96 94.248 5.184Q93.91199999999999 3.84 94.077 2.772Q94.242 1.704 94.929 1.092Q95.616 0.48 96.816 0.48Q97.65599999999999 0.48 98.25899999999999 0.732Q98.862 0.984 99.444 1.296Q99.50399999999999 1.344 99.56099999999999 1.2360000000000002Q99.618 1.1280000000000001 99.55199999999999 1.056Q98.532 0.336 97.602 0.023999999999999994Q96.672 -0.28800000000000003 95.78399999999999 -0.28800000000000003ZM94.17 6.12 94.218 6.408 99.714 6.5040000000000004 99.624 6.144ZM107.74799999999999 -0.14400000000000002Q107.63999999999999 -0.192 107.544 -0.192Q107.25599999999999 -0.192 107.142 0.31200000000000006Q107.02799999999999 0.8160000000000001 107.26799999999999 1.776L108.42599999999999 6.408Q108.79799999999999 7.896 108.47399999999999 8.472Q108.14999999999999 9.048 107.454 9.048Q106.85399999999998 9.048 106.38899999999998 8.772Q105.92399999999999 8.496 105.618 8.088000000000001Q105.312 7.68 105.12599999999999 7.32Q105.01799999999999 7.08 104.81699999999998 6.756Q104.61599999999999 6.432 104.136 6.432Q103.776 6.432 103.64999999999999 6.648Q103.52399999999999 6.864 103.58399999999999 7.104Q103.68599999999999 7.5120000000000005 104.22299999999998 7.932Q104.75999999999999 8.352 105.50999999999999 8.712Q106.25999999999999 9.072000000000001 107.03399999999999 9.288Q107.80799999999999 9.504 108.40799999999999 9.504Q109.392 9.504 109.689 8.867999999999999Q109.98599999999999 8.232 109.71 7.128L108.576 2.592Q108.35999999999999 1.728 108.46499999999999 1.332Q108.57 0.936 109.07399999999998 0.936Q109.52999999999999 0.936 110.484 1.296Q110.61599999999999 1.344 110.63099999999999 1.2120000000000002Q110.64599999999999 1.08 110.514 1.032ZM103.49399999999999 -0.168Q102.606 -0.168 102.261 0.324Q101.916 0.8160000000000001 102.07799999999999 1.464Q102.17999999999999 1.872 102.47999999999999 2.2560000000000002Q102.77999999999999 2.64 103.386 3.0Q103.99199999999999 3.36 104.98799999999999 3.696L108.27 4.824L108.24 4.5120000000000005L105.13799999999999 3.432Q104.58599999999998 3.24 104.26499999999999 3.0120000000000005Q103.94399999999999 2.7840000000000003 103.785 2.532Q103.62599999999999 2.2800000000000002 103.55999999999999 2.016Q103.428 1.488 103.66799999999999 1.056Q103.90799999999999 0.624 104.57999999999998 0.624Q104.844 0.624 105.15299999999999 0.708Q105.46199999999999 0.792 105.92999999999999 1.032L107.77199999999999 1.968L107.74799999999999 1.68L105.666 0.552Q104.96999999999998 0.168 104.47199999999998 0.0Q103.97399999999999 -0.168 103.49399999999999 -0.168ZM123.76799999999999 0.0Q123.71999999999998 0.0 123.75599999999999 0.14400000000000002Q123.79199999999999 0.28800000000000003 123.83999999999999 0.28800000000000003Q124.82399999999998 0.28800000000000003 125.20199999999998 0.6000000000000001Q125.57999999999998 0.912 125.838 1.944L126.81599999999999 5.856Q127.52999999999999 8.712 125.39399999999999 8.712Q124.50599999999999 8.712 123.45299999999999 8.1Q122.39999999999999 7.488 121.44599999999998 6.456L121.42199999999998 6.744Q122.898 8.232 124.053 8.867999999999999Q125.20799999999998 9.504 126.23999999999998 9.504Q127.48799999999999 9.504 127.99499999999998 8.796Q128.50199999999998 8.088000000000001 128.13 6.6000000000000005L126.966 1.944Q126.708 0.912 126.90599999999999 0.6000000000000001Q127.10399999999998 0.28800000000000003 128.112 0.28800000000000003Q128.184 0.28800000000000003 128.148 0.14400000000000002Q128.112 0.0 128.04 0.0Q127.63199999999999 0.0 127.08599999999998 0.024Q126.53999999999999 0.048 125.916 0.048Q125.31599999999999 0.048 124.75799999999998 0.024Q124.19999999999999 0.0 123.76799999999999 0.0ZM117.6 0.0Q117.52799999999999 0.0 117.564 0.14400000000000002Q117.6 0.28800000000000003 117.67199999999998 0.28800000000000003Q118.65599999999999 0.28800000000000003 119.02199999999999 0.6000000000000001Q119.38799999999999 0.912 119.64599999999999 1.944L120.624 5.856Q121.338 8.712 119.22599999999998 8.712Q118.338 8.712 117.285 8.1Q116.23199999999999 7.488 115.27799999999999 6.456L115.25399999999999 6.744Q116.70599999999999 8.232 117.86099999999999 8.867999999999999Q119.01599999999999 9.504 120.04799999999999 9.504Q121.29599999999999 9.504 121.803 8.796Q122.30999999999999 8.088000000000001 121.93799999999999 6.6000000000000005L120.77399999999999 1.944Q120.51599999999999 0.912 120.726 0.6000000000000001Q120.93599999999999 0.28800000000000003 121.94399999999999 0.28800000000000003Q121.99199999999999 0.28800000000000003 121.95599999999999 0.14400000000000002Q121.91999999999999 0.0 121.87199999999999 0.0Q121.43999999999998 0.0 120.90599999999998 0.024Q120.37199999999999 0.048 119.74799999999999 0.048Q119.148 0.048 118.57799999999999 0.024Q118.00799999999998 0.0 117.6 0.0ZM111.43199999999999 0.0Q111.35999999999999 0.0 111.39599999999999 0.14400000000000002Q111.43199999999999 0.28800000000000003 111.50399999999999 0.28800000000000003Q112.48799999999999 0.28800000000000003 112.85399999999998 0.6000000000000001Q113.21999999999998 0.912 113.478 1.944L114.67799999999998 6.744Q114.88199999999999 7.5600000000000005 114.78299999999999 7.932Q114.68399999999998 8.304 114.204 8.304Q113.96399999999998 8.304 113.60399999999998 8.208Q113.24399999999999 8.112 112.76999999999998 7.944Q112.66799999999999 7.92 112.63799999999999 8.04Q112.60799999999999 8.16 112.716 8.208L115.692 9.456Q115.746 9.48 115.81799999999998 9.48Q115.98599999999999 9.48 116.11499999999998 8.988Q116.24399999999999 8.496 116.00999999999999 7.5600000000000005L114.606 1.944Q114.34799999999998 0.912 114.54599999999999 0.6000000000000001Q114.74399999999999 0.28800000000000003 115.752 0.28800000000000003Q115.82399999999998 0.28800000000000003 115.78799999999998 0.14400000000000002Q115.752 0.0 115.67999999999999 0.0Q115.27199999999999 0.0 114.726 0.024Q114.17999999999999 0.048 113.57999999999998 0.048Q112.97999999999999 0.048 112.41 0.024Q111.83999999999999 0.0 111.43199999999999 0.0ZM130.85399999999998 -0.264Q130.422 -0.264 130.221 -0.01200000000000001Q130.01999999999998 0.24 130.128 0.672Q130.23 1.08 130.55399999999997 1.32Q130.878 1.56 131.30999999999997 1.56Q131.766 1.56 131.94599999999997 1.32Q132.12599999999998 1.08 132.02399999999997 0.672Q131.916 0.24 131.613 -0.01200000000000001Q131.30999999999997 -0.264 130.85399999999998 -0.264ZM142.32 2.496 145.308 14.448 145.824 14.4 142.848 2.496Q142.542 1.272 142.827 0.78Q143.112 0.28800000000000003 144.12 0.28800000000000003Q144.192 0.28800000000000003 144.156 0.14400000000000002Q144.12 0.0 144.048 0.0Q143.592 0.0 143.106 0.024Q142.62 0.048 142.02 0.048Q141.44400000000002 0.048 140.91000000000003 0.024Q140.376 0.0 139.89600000000002 0.0Q139.848 0.0 139.88400000000001 0.14400000000000002Q139.92000000000002 0.28800000000000003 139.96800000000002 0.28800000000000003Q141.024 0.28800000000000003 141.519 0.78Q142.014 1.272 142.32 2.496ZM153.702 -0.264Q153.69 -0.312 153.567 -0.324Q153.44400000000002 -0.336 153.40200000000002 -0.312L145.89000000000001 13.032Q145.32 14.016 144.77100000000002 14.364Q144.222 14.712 143.64600000000002 14.712Q143.574 14.712 143.61 14.856Q143.64600000000002 15.0 143.71800000000002 15.0Q144.126 15.0 144.55200000000002 14.975999999999999Q144.978 14.952 145.314 14.952Q145.65 14.952 145.95600000000002 14.975999999999999Q146.262 15.0 146.406 15.0Q146.71800000000002 15.0 146.769 14.724Q146.82 14.448 147.198 13.752L153.966 1.56ZM156.888 12.48 153.702 -0.264 153.36 0.48 156.36 12.48Q156.666 13.704 156.40800000000002 14.208Q156.15 14.712 155.142 14.712Q155.094 14.712 155.13 14.856Q155.166 15.0 155.214 15.0Q155.69400000000002 15.0 156.17700000000002 14.964Q156.66 14.928 157.26 14.928Q157.812 14.928 158.373 14.964Q158.934 15.0 159.39000000000001 15.0Q159.462 15.0 159.426 14.856Q159.39000000000001 14.712 159.318 14.712Q158.286 14.712 157.74 14.208Q157.19400000000002 13.704 156.888 12.48ZM161.70600000000002 -0.312Q160.29000000000002 -0.312 159.42000000000002 0.384Q158.55 1.08 158.27700000000002 2.2439999999999998Q158.00400000000002 3.408 158.34 4.752Q158.65200000000002 6.0 159.336 6.912Q160.02 7.824 160.923 8.411999999999999Q161.82600000000002 9.0 162.786 9.288Q163.746 9.576 164.61 9.576Q166.05 9.576 166.90200000000002 8.856000000000002Q167.75400000000002 8.136000000000001 168.024 7.008000000000001Q168.294 5.88 167.982 4.632Q167.598 3.096 166.626 1.992Q165.654 0.888 164.364 0.28800000000000003Q163.074 -0.312 161.70600000000002 -0.312ZM162.48600000000002 0.12Q163.83 0.12 164.871 1.02Q165.912 1.92 166.43400000000003 4.008Q166.8 5.472 166.584 6.6240000000000006Q166.368 7.776 165.636 8.448Q164.904 9.120000000000001 163.704 9.120000000000001Q162.336 9.120000000000001 161.33100000000002 8.172Q160.32600000000002 7.224 159.882 5.448Q159.52800000000002 4.032 159.714 2.808Q159.9 1.584 160.60500000000002 0.8520000000000001Q161.31 0.12 162.48600000000002 0.12ZM175.27200000000002 0.0Q175.20000000000002 0.0 175.23600000000002 0.14400000000000002Q175.27200000000002 0.28800000000000003 175.34400000000002 0.28800000000000003Q176.32800000000003 0.28800000000000003 176.69400000000002 0.6000000000000001Q177.06000000000003 0.912 177.318 1.944L178.32000000000002 5.952Q178.686 7.416 178.30200000000002 8.088000000000001Q177.918 8.76 176.74200000000002 8.76Q175.83 8.76 174.73200000000003 8.16Q173.63400000000001 7.5600000000000005 172.674 6.5040000000000004L172.65 6.792Q174.15 8.28 175.344 8.928Q176.538 9.576 177.59400000000002 9.576Q178.91400000000002 9.576 179.45700000000002 8.868Q180.00000000000003 8.16 179.62800000000001 6.672L178.44600000000003 1.944Q178.18800000000002 0.912 178.38600000000002 0.6000000000000001Q178.584 0.28800000000000003 179.592 0.28800000000000003Q179.66400000000002 0.28800000000000003 179.62800000000001 0.14400000000000002Q179.592 0.0 179.52 0.0Q179.11200000000002 0.0 178.56600000000003 0.024Q178.02 0.048 177.42000000000002 0.048Q176.82000000000002 0.048 176.25 0.024Q175.68 0.0 175.27200000000002 0.0ZM168.81600000000003 0.0Q168.74400000000003 0.0 168.78000000000003 0.14400000000000002Q168.81600000000003 0.28800000000000003 168.888 0.28800000000000003Q169.872 0.28800000000000003 170.238 0.6000000000000001Q170.604 0.912 170.86200000000002 1.944L172.062 6.744Q172.26600000000002 7.5600000000000005 172.16700000000003 7.932Q172.068 8.304 171.58800000000002 8.304Q171.348 8.304 170.988 8.208Q170.62800000000001 8.112 170.15400000000002 7.944Q170.05200000000002 7.92 170.02200000000002 8.04Q169.99200000000002 8.16 170.10000000000002 8.208L173.07600000000002 9.456Q173.13000000000002 9.48 173.20200000000003 9.48Q173.37 9.48 173.49900000000002 8.988Q173.62800000000001 8.496 173.394 7.5600000000000005L171.99 1.944Q171.73200000000003 0.912 171.93 0.6000000000000001Q172.12800000000001 0.28800000000000003 173.13600000000002 0.28800000000000003Q173.20800000000003 0.28800000000000003 173.17200000000003 0.14400000000000002Q173.13600000000002 0.0 173.06400000000002 0.0Q172.656 0.0 172.11 0.024Q171.56400000000002 0.048 170.96400000000003 0.048Q170.364 0.048 169.794 0.024Q169.22400000000002 0.0 168.81600000000003 0.0ZM185.16 -0.28800000000000003Q183.744 -0.28800000000000003 182.961 0.372Q182.178 1.032 181.962 2.088Q181.746 3.144 182.04 4.32Q182.406 5.784 183.369 6.948Q184.332 8.112 185.643 8.796Q186.954 9.48 188.298 9.48Q189.666 9.48 190.152 8.736Q190.638 7.992 190.326 6.744Q190.248 6.432 190.152 6.288Q190.056 6.144 189.888 6.144H188.76Q189.252 7.632000000000001 188.835 8.316Q188.418 9.0 187.41 9.0Q186.066 9.0 185.067 7.98Q184.068 6.96 183.624 5.184Q183.288 3.84 183.453 2.772Q183.618 1.704 184.305 1.092Q184.992 0.48 186.192 0.48Q187.032 0.48 187.635 0.732Q188.238 0.984 188.82 1.296Q188.88 1.344 188.937 1.2360000000000002Q188.994 1.1280000000000001 188.928 1.056Q187.90800000000002 0.336 186.978 0.023999999999999994Q186.048 -0.28800000000000003 185.16 -0.28800000000000003ZM183.546 6.12 183.594 6.408 189.09 6.5040000000000004 189.0 6.144ZM200.85000000000002 -0.312Q199.43400000000003 -0.312 198.56400000000002 0.384Q197.69400000000002 1.08 197.42100000000002 2.2439999999999998Q197.14800000000002 3.408 197.484 4.752Q197.79600000000002 6.0 198.48000000000002 6.912Q199.16400000000002 7.824 200.067 8.411999999999999Q200.97000000000003 9.0 201.93 9.288Q202.89000000000001 9.576 203.75400000000002 9.576Q205.19400000000002 9.576 206.04600000000002 8.856000000000002Q206.89800000000002 8.136000000000001 207.168 7.008000000000001Q207.43800000000002 5.88 207.126 4.632Q206.74200000000002 3.096 205.77 1.992Q204.798 0.888 203.508 0.28800000000000003Q202.21800000000002 -0.312 200.85000000000002 -0.312ZM201.63000000000002 0.12Q202.97400000000002 0.12 204.01500000000001 1.02Q205.056 1.92 205.57800000000003 4.008Q205.94400000000002 5.472 205.728 6.6240000000000006Q205.512 7.776 204.78 8.448Q204.048 9.120000000000001 202.848 9.120000000000001Q201.48000000000002 9.120000000000001 200.47500000000002 8.172Q199.47000000000003 7.224 199.026 5.448Q198.67200000000003 4.032 198.858 2.808Q199.044 1.584 199.74900000000002 0.8520000000000001Q200.454 0.12 201.63000000000002 0.12ZM207.64800000000002 0.0Q207.57600000000002 0.0 207.61200000000002 0.14400000000000002Q207.64800000000002 0.28800000000000003 207.72000000000003 0.28800000000000003Q208.776 0.28800000000000003 209.178 0.6000000000000001Q209.58 0.912 209.83800000000002 1.944L211.18800000000002 7.344Q211.33800000000002 7.944 211.29900000000004 8.22Q211.26000000000002 8.496 210.90900000000002 8.58Q210.55800000000002 8.664 209.71800000000002 8.664Q209.64600000000002 8.664 209.68200000000002 8.808Q209.71800000000002 8.952 209.79000000000002 8.952Q210.84600000000003 8.952 211.25400000000002 9.192Q211.66200000000003 9.432 211.836 10.032Q212.95200000000003 14.016 214.69800000000004 15.719999999999999Q216.44400000000002 17.424 218.86800000000002 17.424Q220.116 17.424 220.791 17.052Q221.466 16.68 221.34600000000003 16.2Q221.26200000000003 15.864 220.99200000000002 15.696000000000002Q220.72200000000004 15.528 220.43400000000003 15.528Q220.21800000000002 15.528 220.05300000000003 15.636Q219.88800000000003 15.744 219.70200000000003 16.056Q219.44400000000002 16.56 219.036 16.799999999999997Q218.62800000000001 17.04 217.95600000000002 17.04Q216.56400000000002 17.04 215.27700000000002 15.492Q213.99 13.944 213.13800000000003 10.536L210.99 1.944Q210.81600000000003 1.248 210.88200000000003 0.888Q210.94800000000004 0.528 211.44600000000003 0.40800000000000003Q211.94400000000002 0.28800000000000003 213.00000000000003 0.28800000000000003Q213.04800000000003 0.28800000000000003 213.01200000000003 0.14400000000000002Q212.97600000000003 0.0 212.92800000000003 0.0Q212.13600000000002 0.0 211.41000000000003 0.024Q210.68400000000003 0.048 209.91600000000003 0.048Q209.29200000000003 0.048 208.69800000000004 0.024Q208.104 0.0 207.64800000000002 0.0ZM215.65200000000002 8.112Q214.776 8.352 213.93900000000002 8.411999999999999Q213.10200000000003 8.472 212.14200000000002 8.472L212.26800000000003 8.976Q213.20400000000004 8.976 214.098 9.048000000000002Q214.99200000000002 9.120000000000001 216.00000000000003 9.216000000000001Q216.07200000000003 9.216000000000001 216.08100000000002 9.06Q216.09000000000003 8.904 216.03000000000003 8.664Q215.98800000000003 8.496 215.865 8.292000000000002Q215.74200000000002 8.088000000000001 215.65200000000002 8.112ZM224.25600000000003 -0.28800000000000003Q223.68000000000004 -0.28800000000000003 223.20900000000003 -0.10800000000000001Q222.73800000000003 0.07200000000000001 222.53100000000003 0.492Q222.32400000000004 0.912 222.50400000000002 1.6320000000000001L223.93200000000002 7.344Q224.08200000000002 7.944 224.079 8.22Q224.07600000000002 8.496 223.83300000000003 8.58Q223.59000000000003 8.664 223.01400000000004 8.664Q222.94200000000004 8.664 222.97800000000004 8.808Q223.01400000000004 8.952 223.08600000000004 8.952Q223.99800000000002 8.952 224.68800000000005 9.456Q225.37800000000004 9.96 225.57000000000002 10.728Q225.58800000000002 10.8 225.76800000000003 10.8Q225.94800000000004 10.8 225.93000000000004 10.728L223.86000000000004 2.448Q223.60800000000003 1.44 223.97700000000003 0.948Q224.34600000000003 0.456 225.30600000000004 0.456Q225.95400000000004 0.456 226.497 0.66Q227.04000000000002 0.864 227.41200000000003 1.104Q227.52000000000004 1.1520000000000001 227.56500000000005 1.044Q227.61000000000004 0.936 227.49600000000004 0.864Q226.45200000000003 0.24 225.71400000000003 -0.02400000000000002Q224.97600000000003 -0.28800000000000003 224.25600000000003 -0.28800000000000003ZM228.58800000000002 8.112Q227.71200000000002 8.352 226.87500000000003 8.411999999999999Q226.03800000000004 8.472 225.07800000000003 8.472L225.20400000000004 8.976Q226.14000000000004 8.976 227.03400000000005 9.048000000000002Q227.92800000000003 9.120000000000001 228.93600000000004 9.216000000000001Q229.00800000000004 9.216000000000001 229.01700000000005 9.06Q229.02600000000004 8.904 228.96600000000004 8.664Q228.92400000000004 8.496 228.80100000000004 8.292000000000002Q228.67800000000003 8.088000000000001 228.58800000000002 8.112ZM228.57600000000002 0.0Q228.50400000000002 0.0 228.54000000000002 0.14400000000000002Q228.57600000000002 0.28800000000000003 228.64800000000002 0.28800000000000003Q229.63200000000003 0.28800000000000003 229.99800000000005 0.6000000000000001Q230.36400000000003 0.912 230.622 1.944L233.73600000000002 14.4Q233.95200000000003 15.264000000000001 233.88300000000004 15.66Q233.81400000000002 16.056 233.38200000000003 16.056Q232.99800000000002 16.056 232.14000000000001 15.696Q232.03200000000004 15.648 232.00500000000005 15.780000000000001Q231.97800000000004 15.912 232.086 15.96L235.39800000000002 17.400000000000002Q235.42200000000003 17.400000000000002 235.42200000000003 17.400000000000002Q235.42200000000003 17.400000000000002 235.44600000000003 17.400000000000002Q235.51800000000003 17.400000000000002 235.55400000000003 17.352000000000004Q235.59000000000003 17.304000000000002 235.57200000000003 17.232L231.75000000000003 1.944Q231.49200000000002 0.912 231.70200000000003 0.6000000000000001Q231.91200000000003 0.28800000000000003 232.92000000000002 0.28800000000000003Q232.96800000000002 0.28800000000000003 232.93200000000002 0.14400000000000002Q232.89600000000002 0.0 232.848 0.0Q232.41600000000003 0.0 231.882 0.024Q231.348 0.048 230.72400000000002 0.048Q230.12400000000002 0.048 229.55400000000003 0.024Q228.98400000000004 0.0 228.57600000000002 0.0ZM235.03200000000004 0.0Q234.96000000000004 0.0 234.99600000000004 0.14400000000000002Q235.03200000000004 0.28800000000000003 235.104 0.28800000000000003Q236.08800000000002 0.28800000000000003 236.454 0.6000000000000001Q236.82000000000002 0.912 237.07800000000003 1.944L238.05600000000004 5.856Q238.77000000000004 8.712 236.51400000000004 8.712Q235.57800000000003 8.712 234.47700000000003 8.1Q233.37600000000003 7.488 232.42200000000003 6.456L232.39800000000002 6.744Q233.89800000000002 8.232 235.08900000000003 8.867999999999999Q236.28000000000003 9.504 237.36 9.504Q238.65600000000003 9.504 239.199 8.796Q239.74200000000002 8.088000000000001 239.37000000000003 6.6000000000000005L238.20600000000002 1.944Q237.94800000000004 0.912 238.15800000000002 0.6000000000000001Q238.36800000000002 0.28800000000000003 239.37600000000003 0.28800000000000003Q239.42400000000004 0.28800000000000003 239.38800000000003 0.14400000000000002Q239.35200000000003 0.0 239.30400000000003 0.0Q238.872 0.0 238.33800000000002 0.024Q237.80400000000003 0.048 237.18000000000004 0.048Q236.58000000000004 0.048 236.01000000000005 0.024Q235.44000000000003 0.0 235.03200000000004 0.0ZM244.92000000000002 -0.28800000000000003Q243.50400000000002 -0.28800000000000003 242.721 0.372Q241.93800000000002 1.032 241.72200000000004 2.088Q241.50600000000003 3.144 241.8 4.32Q242.16600000000003 5.784 243.12900000000002 6.948Q244.092 8.112 245.40300000000002 8.796Q246.71400000000003 9.48 248.05800000000002 9.48Q249.42600000000002 9.48 249.91200000000003 8.736Q250.39800000000002 7.992 250.086 6.744Q250.008 6.432 249.91200000000003 6.288Q249.81600000000003 6.144 249.64800000000002 6.144H248.52Q249.01200000000003 7.632000000000001 248.59500000000003 8.316Q248.17800000000003 9.0 247.17000000000002 9.0Q245.82600000000002 9.0 244.82700000000003 7.98Q243.82800000000003 6.96 243.38400000000001 5.184Q243.04800000000003 3.84 243.21300000000002 2.772Q243.37800000000001 1.704 244.065 1.092Q244.752 0.48 245.95200000000003 0.48Q246.79200000000003 0.48 247.39500000000004 0.732Q247.99800000000002 0.984 248.58 1.296Q248.64000000000001 1.344 248.697 1.2360000000000002Q248.75400000000002 1.1280000000000001 248.68800000000002 1.056Q247.66800000000003 0.336 246.73800000000003 0.023999999999999994Q245.80800000000002 -0.28800000000000003 244.92000000000002 -0.28800000000000003ZM243.306 6.12 243.354 6.408 248.85000000000002 6.5040000000000004 248.76000000000002 6.144ZM262.728 0.0Q262.65600000000006 0.0 262.692 0.14400000000000002Q262.728 0.28800000000000003 262.8 0.28800000000000003Q263.78400000000005 0.28800000000000003 264.15000000000003 0.6000000000000001Q264.516 0.912 264.77400000000006 1.944L265.776 5.952Q266.14200000000005 7.416 265.75800000000004 8.088000000000001Q265.374 8.76 264.19800000000004 8.76Q263.28600000000006 8.76 262.18800000000005 8.16Q261.09000000000003 7.5600000000000005 260.13000000000005 6.5040000000000004L260.10600000000005 6.792Q261.60600000000005 8.28 262.80000000000007 8.928Q263.994 9.576 265.05 9.576Q266.37000000000006 9.576 266.913 8.868Q267.456 8.16 267.08400000000006 6.672L265.90200000000004 1.944Q265.644 0.912 265.842 0.6000000000000001Q266.04 0.28800000000000003 267.04800000000006 0.28800000000000003Q267.12000000000006 0.28800000000000003 267.08400000000006 0.14400000000000002Q267.04800000000006 0.0 266.97600000000006 0.0Q266.56800000000004 0.0 266.02200000000005 0.024Q265.47600000000006 0.048 264.87600000000003 0.048Q264.276 0.048 263.706 0.024Q263.136 0.0 262.728 0.0ZM256.27200000000005 0.0Q256.20000000000005 0.0 256.23600000000005 0.14400000000000002Q256.27200000000005 0.28800000000000003 256.34400000000005 0.28800000000000003Q257.32800000000003 0.28800000000000003 257.6940000000001 0.6000000000000001Q258.06000000000006 0.912 258.31800000000004 1.944L259.51800000000003 6.744Q259.72200000000004 7.5600000000000005 259.62300000000005 7.932Q259.52400000000006 8.304 259.04400000000004 8.304Q258.80400000000003 8.304 258.4440000000001 8.208Q258.08400000000006 8.112 257.61 7.944Q257.50800000000004 7.92 257.47800000000007 8.04Q257.44800000000004 8.16 257.55600000000004 8.208L260.53200000000004 9.456Q260.586 9.48 260.658 9.48Q260.826 9.48 260.95500000000004 8.988Q261.08400000000006 8.496 260.85 7.5600000000000005L259.446 1.944Q259.18800000000005 0.912 259.3860000000001 0.6000000000000001Q259.58400000000006 0.28800000000000003 260.59200000000004 0.28800000000000003Q260.66400000000004 0.28800000000000003 260.62800000000004 0.14400000000000002Q260.59200000000004 0.0 260.52000000000004 0.0Q260.112 0.0 259.56600000000003 0.024Q259.02000000000004 0.048 258.42 0.048Q257.82000000000005 0.048 257.25 0.024Q256.68 0.0 256.27200000000005 0.0ZM268.896 0.0Q268.848 0.0 268.884 0.14400000000000002Q268.92 0.28800000000000003 268.968 0.28800000000000003Q269.952 0.28800000000000003 270.33000000000004 0.6000000000000001Q270.708 0.912 270.966 1.944L272.1 6.48Q272.31600000000003 7.344 272.247 7.74Q272.178 8.136000000000001 271.72200000000004 8.136000000000001Q271.50600000000003 8.136000000000001 271.20900000000006 8.052Q270.91200000000003 7.968 270.48 7.776Q270.37800000000004 7.752 270.351 7.884Q270.324 8.016 270.432 8.064L273.75600000000003 9.456Q273.834 9.48 273.858 9.48Q273.906 9.48 273.954 9.432Q274.002 9.384 273.98400000000004 9.312Q273.942 9.144 273.72900000000004 8.388Q273.516 7.632000000000001 273.23400000000004 6.5040000000000004L272.094 1.944Q271.836 0.912 272.034 0.6000000000000001Q272.232 0.28800000000000003 273.24 0.28800000000000003Q273.312 0.28800000000000003 273.276 0.14400000000000002Q273.24 0.0 273.168 0.0Q272.76000000000005 0.0 272.21400000000006 0.024Q271.668 0.048 271.04400000000004 0.048Q270.444 0.048 269.886 0.024Q269.32800000000003 0.0 268.896 0.0ZM273.93600000000004 12.384Q273.48 12.384 273.288 12.624Q273.096 12.864 273.204 13.296000000000001Q273.312 13.728 273.624 13.968Q273.93600000000004 14.208 274.392 14.208Q274.824 14.208 275.004 13.968Q275.184 13.728 275.076 13.296000000000001Q274.848 12.384 273.93600000000004 12.384ZM276.744 -6.72Q275.064 -6.72 274.35300000000007 -5.964Q273.64200000000005 -5.208 273.91800000000006 -4.104Q274.23 -2.856 275.547 -1.764Q276.86400000000003 -0.672 278.89200000000005 0.336L279.07800000000003 0.024Q278.19000000000005 -0.36 277.40700000000004 -0.804Q276.624 -1.248 276.06300000000005 -1.8599999999999999Q275.50200000000007 -2.472 275.26800000000003 -3.408Q275.076 -4.176 275.27700000000004 -4.764Q275.47800000000007 -5.352 276.105 -5.676Q276.732 -6.0 277.81200000000007 -6.0Q279.564 -6.0 280.92600000000004 -5.112Q282.28800000000007 -4.224 282.672 -2.688Q282.91800000000006 -1.704 282.53400000000005 -1.272Q282.15000000000003 -0.84 281.31300000000005 -0.732Q280.47600000000006 -0.624 279.32400000000007 -0.624Q278.22 -0.624 277.341 -0.54Q276.46200000000005 -0.456 276.02400000000006 -0.096Q275.58600000000007 0.264 275.78400000000005 1.056Q275.98800000000006 1.872 276.63300000000004 2.436Q277.278 3.0 278.32800000000003 3.744L278.53200000000004 3.504Q277.80600000000004 3.0 277.46700000000004 2.604Q277.12800000000004 2.208 277.02000000000004 1.776Q276.90000000000003 1.296 277.15200000000004 1.008Q277.40400000000005 0.72 278.163 0.588Q278.922 0.456 280.314 0.456Q280.84200000000004 0.456 281.53200000000004 0.43200000000000005Q282.22200000000004 0.40800000000000003 282.846 0.21600000000000003Q283.47 0.024 283.788 -0.48Q284.10600000000005 -0.984 283.86600000000004 -1.944Q283.62000000000006 -2.928 282.91200000000003 -3.792Q282.20400000000006 -4.656 281.19900000000007 -5.316Q280.194 -5.976 279.033 -6.348Q277.87200000000007 -6.72 276.744 -6.72ZM279.99000000000007 3.192Q278.838 3.192 278.139 3.612Q277.44000000000005 4.032 277.18500000000006 4.74Q276.93000000000006 5.448 277.14000000000004 6.288Q277.35600000000005 7.152 277.9770000000001 7.859999999999999Q278.59800000000007 8.568 279.54600000000005 9.0Q280.494 9.432 281.67 9.432Q282.99000000000007 9.432 283.6500000000001 8.952Q284.31000000000006 8.472 284.46600000000007 7.752Q284.62200000000007 7.032 284.44800000000004 6.336Q284.25000000000006 5.5440000000000005 283.6500000000001 4.824Q283.05000000000007 4.104 282.12000000000006 3.648Q281.19000000000005 3.192 279.99000000000007 3.192ZM280.50600000000003 3.528Q281.34600000000006 3.528 282.033 4.0680000000000005Q282.72 4.6080000000000005 283.03200000000004 5.856Q283.28400000000005 6.864 283.09200000000004 7.584Q282.90000000000003 8.304 282.375 8.7Q281.85 9.096 281.05800000000005 9.096Q280.218 9.096 279.53700000000003 8.58Q278.85600000000005 8.064 278.54400000000004 6.816Q278.25600000000003 5.664 278.505 4.932Q278.754 4.2 279.30600000000004 3.864Q279.85800000000006 3.528 280.50600000000003 3.528ZM283.266 7.656000000000001 283.47 8.472Q284.32200000000006 8.904 285.08700000000005 9.18Q285.85200000000003 9.456 286.69200000000006 9.456Q286.74000000000007 9.456 286.73400000000004 9.288Q286.72800000000007 9.120000000000001 286.68600000000004 8.952Q286.62600000000003 8.712 286.49700000000007 8.436Q286.36800000000005 8.16 286.28400000000005 8.208Q286.134 8.28 285.759 8.411999999999999Q285.384 8.544 284.80800000000005 8.544Q284.49600000000004 8.544 284.22 8.496Q283.944 8.448 283.66200000000003 8.376ZM285.4320000000001 0.0Q285.36000000000007 0.0 285.3960000000001 0.14400000000000002Q285.4320000000001 0.28800000000000003 285.5040000000001 0.28800000000000003Q286.48800000000006 0.28800000000000003 286.85400000000004 0.6000000000000001Q287.22 0.912 287.47800000000007 1.944L290.59200000000004 14.4Q290.80800000000005 15.264000000000001 290.73900000000003 15.66Q290.6700000000001 16.056 290.23800000000006 16.056Q289.85400000000004 16.056 288.99600000000004 15.696Q288.88800000000003 15.648 288.86100000000005 15.780000000000001Q288.83400000000006 15.912 288.94200000000006 15.96L292.2540000000001 17.400000000000002Q292.2780000000001 17.400000000000002 292.2780000000001 17.400000000000002Q292.2780000000001 17.400000000000002 292.302 17.400000000000002Q292.374 17.400000000000002 292.41 17.352000000000004Q292.446 17.304000000000002 292.42800000000005 17.232L288.60600000000005 1.944Q288.34800000000007 0.912 288.55800000000005 0.6000000000000001Q288.76800000000003 0.28800000000000003 289.77600000000007 0.28800000000000003Q289.82400000000007 0.28800000000000003 289.78800000000007 0.14400000000000002Q289.75200000000007 0.0 289.70400000000006 0.0Q289.27200000000005 0.0 288.73800000000006 0.024Q288.20400000000006 0.048 287.58000000000004 0.048Q286.9800000000001 0.048 286.4100000000001 0.024Q285.84000000000003 0.0 285.4320000000001 0.0ZM291.88800000000003 0.0Q291.81600000000003 0.0 291.85200000000003 0.14400000000000002Q291.88800000000003 0.28800000000000003 291.96000000000004 0.28800000000000003Q292.9440000000001 0.28800000000000003 293.31000000000006 0.6000000000000001Q293.67600000000004 0.912 293.934 1.944L294.91200000000003 5.856Q295.62600000000003 8.712 293.37000000000006 8.712Q292.434 8.712 291.333 8.1Q290.232 7.488 289.278 6.456L289.2540000000001 6.744Q290.7540000000001 8.232 291.94500000000005 8.867999999999999Q293.136 9.504 294.21600000000007 9.504Q295.51200000000006 9.504 296.05500000000006 8.796Q296.59800000000007 8.088000000000001 296.22600000000006 6.6000000000000005L295.06200000000007 1.944Q294.80400000000003 0.912 295.014 0.6000000000000001Q295.22400000000005 0.28800000000000003 296.232 0.28800000000000003Q296.28000000000003 0.28800000000000003 296.244 0.14400000000000002Q296.208 0.0 296.16 0.0Q295.72800000000007 0.0 295.1940000000001 0.024Q294.66 0.048 294.03600000000006 0.048Q293.43600000000004 0.048 292.86600000000004 0.024Q292.29600000000005 0.0 291.88800000000003 0.0ZM301.15200000000004 -0.28800000000000003Q300.576 -0.28800000000000003 300.105 -0.10800000000000001Q299.63400000000007 0.07200000000000001 299.427 0.492Q299.22 0.912 299.40000000000003 1.6320000000000001L300.82800000000003 7.344Q300.97800000000007 7.944 300.975 8.22Q300.97200000000004 8.496 300.72900000000004 8.58Q300.48600000000005 8.664 299.91 8.664Q299.838 8.664 299.874 8.808Q299.91 8.952 299.982 8.952Q300.89400000000006 8.952 301.58400000000006 9.456Q302.27400000000006 9.96 302.46600000000007 10.728Q302.48400000000004 10.8 302.66400000000004 10.8Q302.84400000000005 10.8 302.826 10.728L300.75600000000003 2.448Q300.504 1.44 300.87300000000005 0.948Q301.242 0.456 302.20200000000006 0.456Q302.85 0.456 303.39300000000003 0.66Q303.93600000000004 0.864 304.30800000000005 1.104Q304.41600000000005 1.1520000000000001 304.461 1.044Q304.50600000000003 0.936 304.39200000000005 0.864Q303.34800000000007 0.24 302.61000000000007 -0.02400000000000002Q301.87200000000007 -0.28800000000000003 301.15200000000004 -0.28800000000000003ZM305.48400000000004 8.112Q304.60800000000006 8.352 303.7710000000001 8.411999999999999Q302.934 8.472 301.97400000000005 8.472L302.1 8.976Q303.03600000000006 8.976 303.93000000000006 9.048000000000002Q304.82400000000007 9.120000000000001 305.83200000000005 9.216000000000001Q305.90400000000005 9.216000000000001 305.913 9.06Q305.922 8.904 305.862 8.664Q305.82000000000005 8.496 305.69700000000006 8.292000000000002Q305.57400000000007 8.088000000000001 305.48400000000004 8.112ZM318.26400000000007 0.0Q318.21600000000007 0.0 318.25200000000007 0.14400000000000002Q318.28800000000007 0.28800000000000003 318.33600000000007 0.28800000000000003Q319.32000000000005 0.28800000000000003 319.6980000000001 0.6000000000000001Q320.0760000000001 0.912 320.33400000000006 1.944L321.31200000000007 5.856Q322.02600000000007 8.712 319.89000000000004 8.712Q319.00200000000007 8.712 317.94900000000007 8.1Q316.8960000000001 7.488 315.94200000000006 6.456L315.91800000000006 6.744Q317.39400000000006 8.232 318.5490000000001 8.867999999999999Q319.70400000000006 9.504 320.73600000000005 9.504Q321.9840000000001 9.504 322.4910000000001 8.796Q322.99800000000005 8.088000000000001 322.6260000000001 6.6000000000000005L321.46200000000005 1.944Q321.20400000000006 0.912 321.40200000000004 0.6000000000000001Q321.6000000000001 0.28800000000000003 322.60800000000006 0.28800000000000003Q322.68000000000006 0.28800000000000003 322.64400000000006 0.14400000000000002Q322.60800000000006 0.0 322.53600000000006 0.0Q322.12800000000004 0.0 321.58200000000005 0.024Q321.03600000000006 0.048 320.4120000000001 0.048Q319.81200000000007 0.048 319.2540000000001 0.024Q318.6960000000001 0.0 318.26400000000007 0.0ZM312.09600000000006 0.0Q312.02400000000006 0.0 312.06000000000006 0.14400000000000002Q312.09600000000006 0.28800000000000003 312.16800000000006 0.28800000000000003Q313.15200000000004 0.28800000000000003 313.51800000000003 0.6000000000000001Q313.88400000000007 0.912 314.14200000000005 1.944L315.12000000000006 5.856Q315.83400000000006 8.712 313.7220000000001 8.712Q312.83400000000006 8.712 311.78100000000006 8.1Q310.72800000000007 7.488 309.77400000000006 6.456L309.75000000000006 6.744Q311.20200000000006 8.232 312.3570000000001 8.867999999999999Q313.51200000000006 9.504 314.5440000000001 9.504Q315.7920000000001 9.504 316.2990000000001 8.796Q316.8060000000001 8.088000000000001 316.4340000000001 6.6000000000000005L315.2700000000001 1.944Q315.01200000000006 0.912 315.2220000000001 0.6000000000000001Q315.4320000000001 0.28800000000000003 316.44000000000005 0.28800000000000003Q316.48800000000006 0.28800000000000003 316.45200000000006 0.14400000000000002Q316.41600000000005 0.0 316.36800000000005 0.0Q315.9360000000001 0.0 315.40200000000004 0.024Q314.86800000000005 0.048 314.2440000000001 0.048Q313.64400000000006 0.048 313.07400000000007 0.024Q312.5040000000001 0.0 312.09600000000006 0.0ZM305.92800000000005 0.0Q305.85600000000005 0.0 305.89200000000005 0.14400000000000002Q305.92800000000005 0.28800000000000003 306.00000000000006 0.28800000000000003Q306.9840000000001 0.28800000000000003 307.3500000000001 0.6000000000000001Q307.71600000000007 0.912 307.97400000000005 1.944L309.1740000000001 6.744Q309.37800000000004 7.5600000000000005 309.27900000000005 7.932Q309.18000000000006 8.304 308.70000000000005 8.304Q308.4600000000001 8.304 308.1000000000001 8.208Q307.74000000000007 8.112 307.2660000000001 7.944Q307.16400000000004 7.92 307.134 8.04Q307.10400000000004 8.16 307.21200000000005 8.208L310.18800000000005 9.456Q310.2420000000001 9.48 310.3140000000001 9.48Q310.4820000000001 9.48 310.6110000000001 8.988Q310.74000000000007 8.496 310.5060000000001 7.5600000000000005L309.1020000000001 1.944Q308.84400000000005 0.912 309.04200000000003 0.6000000000000001Q309.24000000000007 0.28800000000000003 310.24800000000005 0.28800000000000003Q310.32000000000005 0.28800000000000003 310.28400000000005 0.14400000000000002Q310.24800000000005 0.0 310.17600000000004 0.0Q309.7680000000001 0.0 309.2220000000001 0.024Q308.67600000000004 0.048 308.0760000000001 0.048Q307.47600000000006 0.048 306.90600000000006 0.024Q306.33600000000007 0.0 305.92800000000005 0.0ZM330.5400000000001 -0.14400000000000002Q330.4320000000001 -0.192 330.33600000000007 -0.192Q330.04800000000006 -0.192 329.9340000000001 0.31200000000000006Q329.82000000000005 0.8160000000000001 330.06000000000006 1.776L331.2180000000001 6.408Q331.5900000000001 7.896 331.2660000000001 8.472Q330.94200000000006 9.048 330.2460000000001 9.048Q329.6460000000001 9.048 329.18100000000004 8.772Q328.71600000000007 8.496 328.4100000000001 8.088000000000001Q328.1040000000001 7.68 327.91800000000006 7.32Q327.81000000000006 7.08 327.60900000000004 6.756Q327.4080000000001 6.432 326.92800000000005 6.432Q326.5680000000001 6.432 326.4420000000001 6.648Q326.3160000000001 6.864 326.3760000000001 7.104Q326.47800000000007 7.5120000000000005 327.0150000000001 7.932Q327.5520000000001 8.352 328.3020000000001 8.712Q329.0520000000001 9.072000000000001 329.8260000000001 9.288Q330.6000000000001 9.504 331.2000000000001 9.504Q332.1840000000001 9.504 332.4810000000001 8.867999999999999Q332.7780000000001 8.232 332.50200000000007 7.128L331.36800000000005 2.592Q331.1520000000001 1.728 331.25700000000006 1.332Q331.3620000000001 0.936 331.8660000000001 0.936Q332.32200000000006 0.936 333.27600000000007 1.296Q333.4080000000001 1.344 333.4230000000001 1.2120000000000002Q333.4380000000001 1.08 333.3060000000001 1.032ZM326.28600000000006 -0.168Q325.3980000000001 -0.168 325.0530000000001 0.324Q324.7080000000001 0.8160000000000001 324.87000000000006 1.464Q324.9720000000001 1.872 325.27200000000005 2.2560000000000002Q325.57200000000006 2.64 326.1780000000001 3.0Q326.7840000000001 3.36 327.7800000000001 3.696L331.06200000000007 4.824L331.0320000000001 4.5120000000000005L327.93000000000006 3.432Q327.3780000000001 3.24 327.05700000000013 3.0120000000000005Q326.7360000000001 2.7840000000000003 326.5770000000001 2.532Q326.41800000000006 2.2800000000000002 326.3520000000001 2.016Q326.2200000000001 1.488 326.4600000000001 1.056Q326.7000000000001 0.624 327.37200000000007 0.624Q327.6360000000001 0.624 327.94500000000005 0.708Q328.2540000000001 0.792 328.7220000000001 1.032L330.5640000000001 1.968L330.5400000000001 1.68L328.4580000000001 0.552Q327.76200000000006 0.168 327.26400000000007 0.0Q326.7660000000001 -0.168 326.28600000000006 -0.168ZM338.08200000000005 6.5040000000000004 338.04600000000005 6.744Q339.21000000000004 7.848 339.92100000000005 8.436Q340.63200000000006 9.024000000000001 341.0970000000001 9.252Q341.56200000000007 9.48 341.9460000000001 9.48Q342.45000000000005 9.48 342.86400000000003 9.216000000000001Q343.2780000000001 8.952 343.1820000000001 8.568Q343.12200000000007 8.328 342.89400000000006 8.136Q342.66600000000005 7.944 342.33000000000004 7.944Q342.0420000000001 7.944 341.8800000000001 8.112Q341.7180000000001 8.28 341.51700000000005 8.436Q341.3160000000001 8.592 340.9080000000001 8.592Q340.69200000000006 8.592 340.40700000000004 8.46Q340.12200000000007 8.328 339.59100000000007 7.884Q339.06000000000006 7.44 338.08200000000005 6.5040000000000004ZM334.22400000000005 0.0Q334.15200000000004 0.0 334.18800000000005 0.14400000000000002Q334.22400000000005 0.28800000000000003 334.29600000000005 0.28800000000000003Q335.2800000000001 0.28800000000000003 335.6460000000001 0.6000000000000001Q336.01200000000006 0.912 336.27000000000004 1.944L337.4700000000001 6.744Q337.67400000000004 7.5600000000000005 337.57500000000005 7.932Q337.47600000000006 8.304 336.99600000000004 8.304Q336.7560000000001 8.304 336.3960000000001 8.208Q336.03600000000006 8.112 335.56200000000007 7.944Q335.46000000000004 7.92 335.43000000000006 8.04Q335.40000000000003 8.16 335.50800000000004 8.208L338.48400000000004 9.456Q338.53800000000007 9.48 338.61000000000007 9.48Q338.7780000000001 9.48 338.90700000000004 8.988Q339.03600000000006 8.496 338.8020000000001 7.5600000000000005L337.3980000000001 1.944Q337.22400000000005 1.248 337.302 0.888Q337.38000000000005 0.528 337.8660000000001 0.40800000000000003Q338.3520000000001 0.28800000000000003 339.38400000000007 0.28800000000000003Q339.4560000000001 0.28800000000000003 339.4200000000001 0.14400000000000002Q339.38400000000007 0.0 339.31200000000007 0.0Q338.73600000000005 0.0 337.97400000000005 0.024Q337.21200000000005 0.048 336.37200000000007 0.048Q335.77200000000005 0.048 335.20200000000006 0.024Q334.63200000000006 0.0 334.22400000000005 0.0ZM346.56000000000006 -0.28800000000000003Q345.14400000000006 -0.28800000000000003 344.36100000000005 0.372Q343.57800000000003 1.032 343.362 2.088Q343.146 3.144 343.44000000000005 4.32Q343.80600000000004 5.784 344.769 6.948Q345.732 8.112 347.043 8.796Q348.35400000000004 9.48 349.69800000000004 9.48Q351.06600000000003 9.48 351.552 8.736Q352.038 7.992 351.72600000000006 6.744Q351.648 6.432 351.552 6.288Q351.456 6.144 351.288 6.144H350.16Q350.65200000000004 7.632000000000001 350.235 8.316Q349.81800000000004 9.0 348.81000000000006 9.0Q347.466 9.0 346.467 7.98Q345.468 6.96 345.02400000000006 5.184Q344.68800000000005 3.84 344.85300000000007 2.772Q345.01800000000003 1.704 345.70500000000004 1.092Q346.39200000000005 0.48 347.59200000000004 0.48Q348.432 0.48 349.035 0.732Q349.63800000000003 0.984 350.22 1.296Q350.28000000000003 1.344 350.33700000000005 1.2360000000000002Q350.39400000000006 1.1280000000000001 350.32800000000003 1.056Q349.30800000000005 0.336 348.37800000000004 0.023999999999999994Q347.44800000000004 -0.28800000000000003 346.56000000000006 -0.28800000000000003ZM344.946 6.12 344.994 6.408 350.49 6.5040000000000004 350.40000000000003 6.144ZM353.47800000000007 -0.264Q353.04600000000005 -0.264 352.845 -0.01200000000000001Q352.64400000000006 0.24 352.75200000000007 0.672Q352.85400000000004 1.08 353.17800000000005 1.32Q353.50200000000007 1.56 353.9340000000001 1.56Q354.39000000000004 1.56 354.57000000000005 1.32Q354.75000000000006 1.08 354.6480000000001 0.672Q354.5400000000001 0.24 354.2370000000001 -0.01200000000000001Q353.9340000000001 -0.264 353.47800000000007 -0.264Z"/>
  </g>
</svg>
